<?xml version="1.0" encoding="UTF-8" standalone="no"?>
<!-- Created with Inkscape (http://www.inkscape.org/) -->

<svg
   xmlns:dc="http://purl.org/dc/elements/1.1/"
   xmlns:cc="http://creativecommons.org/ns#"
   xmlns:rdf="http://www.w3.org/1999/02/22-rdf-syntax-ns#"
   xmlns:svg="http://www.w3.org/2000/svg"
   xmlns="http://www.w3.org/2000/svg"
   xmlns:sodipodi="http://sodipodi.sourceforge.net/DTD/sodipodi-0.dtd"
   xmlns:inkscape="http://www.inkscape.org/namespaces/inkscape"
   id="svg2"
   version="1.1"
   inkscape:version="0.48.4 r9939"
   width="993"
   height="324"
   sodipodi:docname="hash-function-attacks-1-hashing.svg">
  <metadata
     id="metadata8">
    <rdf:RDF>
      <cc:Work
         rdf:about="">
        <dc:format>image/svg+xml</dc:format>
        <dc:type
           rdf:resource="http://purl.org/dc/dcmitype/StillImage" />
        <dc:title />
      </cc:Work>
    </rdf:RDF>
  </metadata>
  <defs
     id="defs6" />
  <sodipodi:namedview
     pagecolor="#ffffff"
     bordercolor="#666666"
     borderopacity="1"
     objecttolerance="10"
     gridtolerance="10"
     guidetolerance="10"
     inkscape:pageopacity="0"
     inkscape:pageshadow="2"
     inkscape:window-width="1920"
     inkscape:window-height="1080"
     id="namedview4"
     showgrid="false"
     inkscape:zoom="0.74320239"
     inkscape:cx="430.56164"
     inkscape:cy="74.405676"
     inkscape:window-x="0"
     inkscape:window-y="0"
     inkscape:window-maximized="0"
     inkscape:current-layer="svg2" />
  <path
     sodipodi:nodetypes="ccccc"
     inkscape:connector-curvature="0"
     id="path3843"
     d="m 424.33882,141.325 -17.12577,-95.143241 96.09465,2.854298 20.93152,91.337503 z"
     style="fill:#cccccc;fill-opacity:1;stroke:none" />
  <path
     style="fill:#cccccc;fill-opacity:1;stroke:none"
     d="M 679.32268,142.27643 683.12842,38.570301 962.84951,50.938922 951.43233,152.74218 z"
     id="path3841"
     inkscape:connector-curvature="0"
     sodipodi:nodetypes="ccccc" />
  <path
     style="fill:#cccccc;stroke:none;stroke-width:1px;stroke-linecap:butt;stroke-linejoin:miter;stroke-opacity:1"
     d="M 18.077214,47.133192 249.27527,35.716004 268.30392,140.37356 36.154429,146.08215 z"
     id="path3071"
     inkscape:connector-curvature="0" />
  <path
     style="fill:#000000"
     d="m 683.67232,150.93734 c -2.61624,-2.18109 -2.70642,-5.83643 -1.01,-40.93838 0.19019,-3.93553 0.008,-6.94647 -0.40419,-6.69098 -0.4125,0.25549 -0.82044,-3.499535 -0.90652,-8.344495 -0.18592,-10.46314 -0.33966,-12.76008 -1.16073,-17.34161 -0.34178,-1.90707 -0.88955,-6.06896 -1.21728,-9.24864 -0.32773,-3.17968 -0.91367,-7.90468 -1.30209,-10.5 -0.38843,-2.59532 -0.69659,-6.74377 -0.6848,-9.21877 l 0.0214,-4.5 5.75,-0.0777 c 3.48237,-0.0471 5.75604,0.34733 5.76531,1 0.01,0.70011 0.27272,0.72733 0.75,0.0777 0.40408,-0.55 4.10969,-1.03821 8.23469,-1.08491 4.125,-0.0467 10.875,-0.43419 15,-0.86108 4.125,-0.42688 8.7375,-0.79075 10.25,-0.8086 1.5125,-0.0178 2.75323,-0.30536 2.75717,-0.63892 0.0144,-1.2175 10.30351,-1.09393 11.83061,0.14209 1.08698,0.87979 1.33423,0.89818 0.83257,0.062 -0.44252,-0.73764 -0.0406,-1.20049 1.05804,-1.21845 0.9744,-0.0159 13.69663,-0.31515 28.27163,-0.66492 14.575,-0.34976 32.575,-0.53802 40,-0.41834 24.62088,0.39684 45.45004,0.94305 49.30011,1.29282 2.09006,0.18987 4.01202,0.002 4.27103,-0.41674 0.259,-0.41908 1.47395,-0.55771 2.69989,-0.30806 1.22593,0.24964 8.30397,0.63968 15.72897,0.86676 7.425,0.22708 17.55,0.71515 22.5,1.08462 12.51437,0.93406 38.77449,1.22979 46.09696,0.51912 7.18849,-0.69766 10.90304,-0.017 10.90304,1.99775 0,0.8002 0.37148,1.72747 0.82551,2.0606 1.59477,1.1701 2.40343,14.62072 2.27824,37.89431 -0.0695,12.925 -0.52833,24.132035 -1.01958,24.904515 -0.61106,0.96087 -0.53282,1.18179 0.24768,0.69941 0.78383,-0.48443 1.02971,0.24962 0.78568,2.34549 -0.19535,1.67783 0.0624,3.05059 0.57266,3.05059 0.51031,0 0.60208,0.5271 0.20392,1.17134 -0.39816,0.64423 -0.85274,7.69159 -1.01019,15.6608 -0.20793,10.52484 -0.64164,14.71937 -1.58509,15.3297 -0.71436,0.46213 -5.12383,0.56667 -9.79883,0.23231 -11.20661,-0.8015 -14.08767,-0.80565 -23,-0.0332 -4.125,0.35754 -16.5,0.86784 -27.5,1.13398 -11,0.26614 -23.6,0.78197 -28,1.14629 -8.60076,0.71212 -11.54674,0.75731 -24.15254,0.37043 -4.4839,-0.13761 -8.6464,0.055 -9.25,0.42807 -0.6036,0.37304 -1.09746,0.21284 -1.09746,-0.356 0,-0.6716 -0.82175,-0.72184 -2.34351,-0.14327 -1.28893,0.49005 -5.45143,0.70106 -9.25,0.46891 -3.79857,-0.23215 -14.33149,-0.63518 -23.40649,-0.89564 -9.075,-0.26045 -17.85,-0.71127 -19.5,-1.00183 -1.65,-0.29055 -5.7,-0.4882 -9,-0.43921 -22.08916,0.3279 -47.303,0.16836 -48.07888,-0.30423 -0.50661,-0.30858 -3.34557,-0.17506 -6.3088,0.29672 -3.51654,0.55988 -6.07637,0.48921 -7.37067,-0.20349 -1.32147,-0.70722 -1.76992,-0.7165 -1.34428,-0.0278 0.39821,0.64432 -0.40356,0.89611 -2.12933,0.66866 -1.52242,-0.20064 -2.76804,-0.43822 -2.76804,-0.52796 0,-0.0897 -2.3625,-0.28986 -5.25,-0.44473 -2.8875,-0.15487 -5.25,0.0413 -5.25,0.43597 0,0.39465 -1.6875,1.26801 -3.75,1.94081 -2.0625,0.67279 -4.24438,1.43382 -4.84862,1.69116 -0.60424,0.25734 -2.06098,-0.3344 -3.23719,-1.31497 z m 153.08581,-4.5676 c 5.9125,-0.18039 10.75,0.0614 10.75,0.53739 0,0.47596 0.39835,0.61918 0.88522,0.31828 0.48687,-0.3009 12.29937,-0.78453 26.25,-1.07473 13.95063,-0.2902 30.76478,-0.96267 37.36478,-1.49438 6.6,-0.5317 15.72178,-1.17881 20.27061,-1.43801 4.54884,-0.2592 8.70204,-0.7379 9.22934,-1.06379 0.52729,-0.32588 1.86802,-0.10588 2.97938,0.48891 1.53742,0.8228 2.03955,0.77407 2.09962,-0.20376 0.0617,-1.00407 0.18927,-1.01176 0.58333,-0.0352 0.27741,0.6875 1.81689,1.25 3.42105,1.25 1.60756,0 2.96641,-0.56105 3.0275,-1.25 0.40095,-4.52221 0.52844,-84.407115 0.14243,-89.250005 l -0.47823,-6 -9.79202,0 c -5.38562,0 -9.57397,0.35284 -9.30744,0.78408 0.26652,0.43125 -0.78895,0.52171 -2.34549,0.20104 -5.27465,-1.08667 -8.29117,-1.10088 -8.73528,-0.0411 -0.29284,0.69879 -0.72199,0.71774 -1.26867,0.056 -0.45718,-0.55341 -5.62649,-1 -11.57494,-1 -5.91185,0 -10.74935,-0.29538 -10.75,-0.65638 -6.6e-4,-0.36101 -0.8504,-0.43431 -1.88833,-0.16289 -1.03793,0.27143 -2.19024,0.003 -2.56069,-0.59632 -0.42114,-0.68142 -1.30661,-0.76273 -2.36286,-0.21698 -0.92912,0.48007 -2.58931,0.71681 -3.68931,0.52609 -1.1,-0.19072 -6.15398,-0.55046 -11.23107,-0.79943 -5.07708,-0.24896 -9.68958,-0.73604 -10.25,-1.08239 -0.56041,-0.34634 -1.01893,-0.20783 -1.01893,0.30781 0,1.08066 -20.06035,0.87928 -21.83776,-0.21922 -0.63923,-0.39507 -1.16224,-0.31043 -1.16224,0.18809 0,0.49851 -3.0375,0.70508 -6.75,0.45904 -3.7125,-0.24604 -8.55,-0.48494 -10.75,-0.5309 -2.2,-0.046 -4.33061,-0.56347 -4.73469,-1.15003 -0.44712,-0.64904 -0.74073,-0.67506 -0.75013,-0.0665 -0.01,0.63875 -10.4011,1.06687 -28.76531,1.18512 -15.81243,0.10182 -29.76237,0.41348 -30.99987,0.69258 -1.2375,0.2791 -2.25,0.1733 -2.25,-0.23512 0,-0.40842 -1.09593,-0.74259 -2.43541,-0.74259 -1.33948,0 -2.25806,0.28696 -2.0413,0.63769 0.21676,0.35073 -1.3873,0.70749 -3.56459,0.7928 -2.17728,0.0853 -3.9587,-0.29164 -3.9587,-0.83768 0,-0.54604 -0.47656,-0.99281 -1.05902,-0.99281 -0.58246,0 -0.8299,0.37072 -0.54987,0.82382 0.28003,0.4531 -3.63091,0.89925 -8.69098,0.99146 -5.06007,0.0922 -10.55013,0.4246 -12.20013,0.73866 -1.65,0.31405 -4.86942,0.65539 -7.15427,0.75853 -2.28485,0.10315 -3.97283,0.4813 -3.75106,0.84034 0.58146,0.94137 -8.91903,0.3828 -10.54121,-0.61976 -0.91837,-0.56759 -1.1299,-0.46575 -0.64895,0.31245 0.46834,0.75779 -0.16581,1.1545 -1.84549,1.1545 -1.40746,0 -2.5727,-0.5625 -2.58943,-1.25 -0.0172,-0.70897 -0.4634,-0.50716 -1.03082,0.46629 -0.78362,1.34435 -1.91473,1.60215 -5.21959,1.18962 -2.32055,-0.28967 -4.75864,-0.70153 -5.41799,-0.91526 -1.63558,-0.53017 -2.34837,2.21043 -1.82303,7.00935 0.24083,2.2 0.70213,7.375 1.02511,11.5 0.32298,4.125 0.7772,8.41991 1.00939,9.54424 1.31852,6.38478 1.95944,22.93675 1.75089,45.217645 l -0.23645,25.26187 3.23645,-0.63906 c 1.78005,-0.35148 20.33645,-0.79333 41.23645,-0.98188 20.9,-0.18855 38.45,-0.37762 39,-0.42017 0.55,-0.0425 3.925,0.13027 7.5,0.38402 3.575,0.25376 14.6,0.77076 24.5,1.14891 9.9,0.37815 18.12308,0.80241 18.2735,0.94282 0.15043,0.1404 1.27543,0.10444 2.5,-0.0799 1.22458,-0.18437 7.064,-0.4828 12.9765,-0.6632 z M 710.02152,115.09999 c -3.86986,-4.10325 -5.1717,-9.5699 -4.05398,-17.023385 1.88679,-12.58206 22.54059,-22.10626 22.54059,-10.39427 0,3.73597 -3.61642,11.59634 -5.74936,12.496385 -2.39363,1.01004 -7.45952,1.60957 -8.90701,1.05412 -2.49225,-0.95637 -0.17475,-4.519425 3.37238,-5.184875 2.73525,-0.51313 3.7989,-1.3816 4.88981,-3.99252 0.7668,-1.83521 1.39418,-3.54549 1.39418,-3.80064 0,-0.93734 -4.92957,0.0963 -6.44084,1.35056 -0.85754,0.7117 -1.55916,0.90943 -1.55916,0.43941 0,-0.47001 -1.13168,0.81085 -2.51485,2.84637 -3.33317,4.90519 -4.0295,11.212425 -1.73886,15.750255 2.10256,4.16525 3.92388,4.65152 11.03383,2.94587 4.46426,-1.07096 5.52176,-1.06238 6.20949,0.0504 1.58419,2.56328 -4.02396,6.06462 -10.70418,6.68295 -3.94596,0.36524 -4.67509,0.0631 -7.77204,-3.22063 z m 37.79497,-2.19552 c 0.23451,-0.4125 1.19571,-2.55 2.13599,-4.75 0.94028,-2.2 3.80803,-8.257645 6.37278,-13.461415 2.56474,-5.20377 4.52682,-10.26627 4.36016,-11.25 -0.16665,-0.98372 0.13083,-1.78859 0.66108,-1.78859 0.53024,0 1.85,-1.50152 2.93279,-3.33671 l 1.96871,-3.33671 -7.11994,-0.16432 c -3.91596,-0.0904 -9.45365,-0.16026 -12.30597,-0.15529 -2.85231,0.005 -5.44026,-0.40231 -5.75099,-0.90508 -0.31073,-0.50277 -1.40246,-0.69512 -2.42606,-0.42744 -2.84619,0.7443 -3.64292,-2.54736 -0.87026,-3.59542 1.22834,-0.46431 2.62681,-0.61089 3.1077,-0.32574 0.4809,0.28515 7.58119,0.66366 15.77843,0.84114 8.19724,0.17747 15.31064,0.57395 15.80755,0.88106 0.50119,0.30975 0.26864,1.77535 -0.52226,3.29145 -0.78416,1.50319 -1.42852,3.06175 -1.43191,3.46348 -0.009,1.11608 -15.70048,32.696335 -17.05883,34.333045 -1.20069,1.44674 -6.43335,2.08382 -5.63897,0.68654 z m 186.50271,-4.5 c -0.86415,-0.6875 -1.85874,-2.4875 -2.21018,-4 -0.54868,-2.36133 -0.3183,-2.76628 1.63006,-2.86515 6.1041,-0.30979 9.24814,1.63478 8.02331,4.96235 -1.19146,3.2369 -4.65375,4.12201 -7.44319,1.9028 z m 1.18893,-2.75 c 0,-0.55 -0.47656,-1 -1.05902,-1 -0.58246,0 -0.7809,0.45 -0.44098,1 0.33992,0.55 0.81648,1 1.05902,1 0.24254,0 0.44098,-0.45 0.44098,-1 z m -146,0.87988 c 0,-0.38095 -0.84634,-0.47132 -1.88077,-0.20081 -2.23057,0.58331 -10.11923,-7.079585 -10.11923,-9.829625 0,-1.8144 5.7923,-6.84945 7.87957,-6.84945 0.65494,0 2.18746,-0.60747 3.40561,-1.34994 2.56647,-1.56427 9.71482,-2.14949 9.71482,-0.79532 0,0.89106 -3.08034,2.50756 -9.75,5.11658 -8.50595,3.32734 2.0829,12.162385 11.75,9.803875 1.925,-0.46965 4.04948,-0.97317 4.72106,-1.11894 0.67158,-0.14576 1.50307,-0.54705 1.84776,-0.89174 0.80724,-0.807235 3.43118,0.18717 3.43118,1.30032 0,0.46798 -1.95573,1.99699 -4.34606,3.39782 -3.55885,2.08563 -5.46072,2.50737 -10.5,2.32841 -3.38467,-0.1202 -6.15394,-0.53023 -6.15394,-0.91118 z m 33.07414,-1.81283 c -3.58389,-0.91924 -3.47306,-2.28528 0.39942,-4.922775 1.90232,-1.29564 3.7314,-3.21467 4.0646,-4.26452 0.33321,-1.04984 0.92701,-1.7103 1.31955,-1.4677 0.39255,0.24261 0.78074,-0.31335 0.86265,-1.23547 0.14469,-1.6288 1.68364,-8.66034 2.33673,-10.67659 0.45335,-1.39963 -1.08805,-7.57671 -2.42479,-9.71717 -1.54981,-2.48164 -4.64511,-2.22448 -8.6323,0.71717 -3.38043,2.494 -7,3.31559 -7,1.5889 0,-1.62602 6.23852,-6.21134 7.69196,-5.65361 0.89235,0.34243 1.14845,0.1155 0.69593,-0.61668 -0.47534,-0.76912 -0.16746,-0.948 0.91604,-0.53222 0.89761,0.34445 1.87728,0.22943 2.17704,-0.2556 0.67164,-1.08674 5.74188,-0.51707 8.49052,0.95396 1.11749,0.59806 2.70607,2.70111 3.53016,4.67345 1.53159,3.66561 2.10313,12.83052 0.74835,12.00015 -0.4125,-0.25283 -0.78426,1.08251 -0.82613,2.96741 -0.0478,2.15304 -1.26909,5.11957 -3.28508,7.97967 l -3.20895,4.552575 3.78508,-0.21861 c 4.15867,-0.2402 9.28508,0.86405 9.28508,2.00004 0,2.45817 -14.06263,3.88798 -20.92586,2.12762 z m 70.92586,-0.2324 c 0,-0.52397 -0.45,-0.67457 -1,-0.33465 -0.55,0.33992 -1,0.15303 -1,-0.4153 0,-1.30284 4.85347,-3.64115 7.48665,-3.60693 1.09266,0.0142 2.12657,0.75234 2.29757,1.64031 0.22167,1.15103 -0.851,1.90942 -3.73665,2.64188 -2.5121,0.63764 -4.04757,0.66597 -4.04757,0.0747 z m -22.20935,-0.37734 c -0.29848,-0.29847 -3.54304,-0.60067 -7.21013,-0.67153 -3.6671,-0.0709 -7.35606,-0.63239 -8.19771,-1.24781 -1.36212,-0.99601 -1.32987,-1.4718 0.29346,-4.330025 1.00305,-1.76609 2.36331,-3.00828 3.0228,-2.76043 0.65949,0.24784 0.98078,-0.11825 0.71397,-0.81354 -0.26681,-0.69529 0.60888,-2.4446 1.94598,-3.88735 1.3371,-1.44275 2.2474,-2.80687 2.02291,-3.03137 -0.2245,-0.22449 0.30263,-2.10939 1.1714,-4.18864 1.05462,-2.52407 1.36211,-5.06764 0.92523,-7.65354 -0.62411,-3.69408 -0.82799,-3.87308 -4.41147,-3.87308 -2.49095,0 -4.36895,0.67608 -5.57264,2.00614 -0.99854,1.10337 -2.02745,1.7942 -2.28647,1.53518 -0.25902,-0.25902 -1.25261,-0.0526 -2.20798,0.45868 -2.70992,1.45031 -3.11354,0.0212 -0.69081,-2.44592 5.33344,-5.4312 17.40989,-6.74425 19.93087,-2.16704 3.74466,6.79899 1.70226,16.56072 -4.72905,22.60262 -1.34715,1.26559 -2.21168,2.68565 -1.92117,3.1557 0.29051,0.47006 -0.0609,0.8744 -0.78082,0.89854 -0.71996,0.0241 0.31153,0.6231 2.2922,1.33101 1.98068,0.70792 5.13068,1.206205 7,1.107305 5.42014,-0.286775 6.35796,0.56033 2.92896,2.64563 -3.41829,2.07879 -3.47305,2.09596 -4.23953,1.32947 z m 38.39892,-1.77688 c 0.33677,-2.365435 4.51092,-3.507055 7.23957,-1.98002 2.37189,1.32737 0.24357,3.43611 -3.85221,3.81677 -3.3117,0.30779 -3.66538,0.11601 -3.38736,-1.83675 z m -660.18957,47.62859 c 0,-0.44496 -1.6875,-0.84782 -3.75,-0.89525 -2.0625,-0.0474 -6.9,-0.42718 -10.75,-0.84388 -3.85,-0.41671 -8.35,-0.77084 -10,-0.78697 -1.65,-0.0161 -3.33061,-0.53637 -3.73469,-1.15611 -0.52247,-0.80132 -0.73911,-0.76574 -0.75,0.12319 -0.008,0.6875 -0.49187,1.25 -1.07433,1.25 -0.58246,0 -0.7989,-0.42088 -0.48098,-0.93528 0.33463,-0.54144 -1.5358,-0.85726 -4.44184,-0.75 -2.76093,0.1019 -5.01949,-0.12425 -5.01902,-0.50257 4.7e-4,-0.37832 -0.89914,-0.62006 -1.99914,-0.5372 -1.1,0.0829 -2,0.5799 -2,1.10452 0,0.52463 -0.28417,0.6697 -0.63148,0.32238 -0.34732,-0.34732 -1.43602,-0.20091 -2.41933,0.32534 -1.24744,0.66761 -1.93951,0.58141 -2.28957,-0.28518 -0.39746,-0.98391 -0.51813,-0.98225 -0.58067,0.008 -0.0434,0.6875 -0.78051,1.25 -1.63797,1.25 -0.85746,0 -1.31183,-0.39995 -1.00972,-0.88878 0.30211,-0.48882 -1.04523,-0.67389 -2.99409,-0.41126 -2.11492,0.28501 -4.90087,-0.16665 -6.91067,-1.12036 -2.58829,-1.22823 -7.83899,-1.70996 -22.69689,-2.08236 -20.57784,-0.51577 -29.90314,-0.95215 -44.32961,-2.07441 -4.95,-0.38506 -14.4,-0.81262 -21,-0.95011 -19.452268,-0.40525 -41.555509,-1.32206 -47.999999,-1.99097 -3.3,-0.34253 -9.56536,-0.8039 -13.92302,-1.02528 -4.35766,-0.22138 -8.39026,-0.86974 -8.96133,-1.44082 -0.62451,-0.62452 -1.13965,-8.50627 -1.29259,-19.77699 -0.13986,-10.30627 -0.42437,-22.451175 -0.63224,-26.988675 -0.22452,-4.90067 0.0142,-8.25 0.58805,-8.25 0.53131,0 0.43907,-0.63493 -0.20499,-1.41097 -0.80051,-0.96455 -0.83925,-1.61601 -0.12244,-2.05901 0.57671,-0.35643 1.04167,-1.18399 1.03324,-1.83903 -0.009,-0.71394 -0.39383,-0.59225 -0.96032,0.30383 -1.12572,1.78067 -0.7255,-6.47445 0.4482,-9.24482 0.40778,-0.9625 0.35577,-1.75028 -0.11557,-1.75062 -0.47135,-3.4e-4 -0.93567,-4.05034 -1.03184,-9 -0.0962,-4.94966 0.17893,-8.99938 0.61133,-8.99938 0.4324,0 0.57269,-1.11678 0.31176,-2.48175 -0.58381,-3.05399 2.78304,-4.67795 7.88557,-3.80353 1.8514,0.31728 6.29119,0.51504 9.86619,0.43946 3.575,-0.0756 7.85,-0.0901 9.5,-0.0324 12.79785,0.44795 46.552419,0.12545 48.833789,-0.46656 2.17857,-0.56535 2.65442,-0.43709 2.05804,0.5547 -0.62661,1.04208 -0.47745,1.04863 0.77592,0.0341 1.1702,-0.94723 5.56528,-1.11789 17.87774,-0.69419 8.97935,0.309 16.69248,0.78826 17.1403,1.06503 0.44781,0.27677 0.8211,-0.0859 0.82952,-0.80581 0.0111,-0.95119 0.2803,-0.89898 0.98469,0.19099 0.53316,0.825 0.97627,1.01817 0.98469,0.42928 0.01,-0.69398 1.68664,-0.85984 4.76531,-0.47138 2.6125,0.32964 7.10714,0.52561 9.98808,0.43549 2.88095,-0.0901 5.0608,0.122 4.84412,0.47138 -0.38163,0.61535 2.76798,0.54652 12.6678,-0.27681 3.14447,-0.26152 4.75518,-0.005 4.76531,0.7585 0.01,0.73271 0.28334,0.78873 0.75,0.15354 0.40408,-0.55 4.78469,-1.09944 9.73469,-1.22097 18.54093,-0.45521 30.54473,-0.36942 31.5068,0.22517 0.54626,0.33761 0.9932,0.21227 0.9932,-0.27852 0,-0.49079 0.675,-0.89235 1.5,-0.89235 0.825,0 1.50307,0.2625 1.50682,0.58333 0.004,0.32084 7.44904,0.65737 16.54507,0.74786 13.48501,0.13414 17.00293,0.46899 19.05527,1.81373 1.38436,0.90707 2.32488,2.18304 2.09006,2.83548 -0.23483,0.65245 -0.0366,1.94646 0.44061,2.87558 0.52669,1.02554 0.46718,1.93677 -0.15144,2.3191 -0.56046,0.34638 -0.74641,1.07087 -0.41323,1.60997 1.04198,1.68595 1.15055,11.31946 0.14237,12.63162 -0.64859,0.84414 -0.55824,1.25 0.27825,1.25 0.92487,0 1.09027,1.83675 0.6529,7.25 -0.32218,3.9875 -0.59949,8.73905 -0.61623,10.55901 -0.0209,2.26665 -0.39899,3.08125 -1.20039,2.58596 -0.82646,-0.51079 -0.93591,-0.16113 -0.37279,1.19098 0.43844,1.05273 0.94512,3.93905 1.12597,6.41405 0.18086,2.475 0.62984,8.038685 0.99775,12.363755 0.52243,6.14157 0.3678,8.05449 -0.70603,8.73468 -1.08158,0.6851 -1.09565,0.8742 -0.0659,0.88625 0.79354,0.009 1.00316,0.50754 0.5323,1.26531 -0.42719,0.6875 -0.80256,8.19127 -0.83416,16.67505 -0.0419,11.23946 -0.3898,15.53583 -1.2823,15.83333 -0.67367,0.22456 -1.22531,0.0333 -1.22585,-0.42505 -0.001,-1.03456 -9.09036,-1.01294 -10.77079,0.0256 -0.67556,0.41752 -1.22826,0.39505 -1.22826,-0.0499 z m 6.65109,-8.00701 c 0.0275,-2.09111 0.34354,-7.62701 0.70231,-12.30201 1.26349,-16.46434 1.46154,-26.58203 0.67532,-34.500005 -0.44494,-4.48085 -0.38851,-10.41941 0.12826,-13.5 0.91109,-5.43119 1.04624,-9.29418 0.91171,-26.05962 l -0.0687,-8.55962 -5.75,-0.94038 c -3.1625,-0.5172 -19.25,-0.89089 -35.75,-0.8304 -20.98584,0.0769 -30.22075,-0.22354 -30.73469,-1 -0.52093,-0.78704 -0.73914,-0.75949 -0.75,0.0947 -0.0202,1.58559 -29.84682,1.47078 -31.92793,-0.12289 -0.91305,-0.6992 -1.53197,-0.72812 -1.75011,-0.0818 -0.47359,1.40327 -22.10218,1.13509 -23.52902,-0.29175 -0.76014,-0.76015 -1.70199,-0.8003 -2.96145,-0.12627 -1.26822,0.67874 -1.8468,0.64851 -1.8468,-0.0965 0,-0.73344 -0.55853,-0.7723 -1.72418,-0.11997 -1.09377,0.6121 -2.37346,0.61741 -3.5,0.0145 -1.11549,-0.59701 -1.77582,-0.59822 -1.77582,-0.003 0,0.52092 -1.09194,0.82727 -2.42653,0.68077 -1.3346,-0.14651 -2.99619,0.0857 -3.69244,0.516 -0.7588,0.46897 -1.77697,0.11021 -2.54167,-0.89557 -0.76647,-1.00811 -1.28845,-1.19148 -1.30756,-0.45934 -0.0188,0.72206 -0.70985,0.95842 -1.69584,0.58006 -0.92498,-0.35495 -1.40778,-0.2239 -1.08705,0.29506 0.33045,0.53467 -1.62915,0.90868 -4.58595,0.87528 -2.83963,-0.0321 -5.49357,0.41177 -5.89765,0.98633 -0.45237,0.64323 -0.74645,0.46826 -0.76531,-0.45535 -0.0253,-1.2413 -0.18116,-1.26233 -0.90351,-0.12188 -0.51188,0.80815 -1.39991,1.05239 -2.147198,0.59055 -0.70087,-0.43317 -6.26323,-0.75807 -12.36081,-0.72201 -7.363851,0.0435 -11.333531,-0.32263 -11.822181,-1.09054 -0.43614,-0.68539 -0.74191,-0.7332 -0.75099,-0.11743 -0.0182,1.23158 -15.87626,1.36346 -17.76531,0.14773 -0.69833,-0.44942 -1.25,-0.3699 -1.25,0.18018 0,1.27951 -10.27156,0.94434 -11.23469,-0.3666 -0.40408,-0.55 -0.78345,1.925 -0.84306,5.5 -0.2767,16.5966 -0.96656,33.62099 -1.41022,34.80194 -0.26902,0.71607 -0.0975,1.05988 0.38124,0.76403 0.47869,-0.29585 0.87056,0.91828 0.87081,2.69806 2.4e-4,1.77979 0.10579,12.573475 0.23455,23.985975 0.20742,18.38487 0.42031,20.7625 1.86773,20.85963 3.09873,0.20794 7.64871,0.72785 12.63364,1.44359 2.75,0.39485 10.85,0.8201 18,0.94501 7.15,0.12491 14.575001,0.67041 16.500001,1.21222 1.925,0.54181 4.4,0.83214 5.5,0.64517 5.187968,-0.8818 32.701098,-0.0658 38.499998,1.14183 2.32371,0.48392 14.75137,0.90089 58.98155,1.97891 15.57317,0.37957 20.29968,0.74832 27.51845,2.14693 2.75712,0.53418 9.2136,1.11626 21,1.89323 5.5,0.36257 10.07993,0.7371 10.17762,0.8323 0.0977,0.0952 2.82043,0.30406 6.05054,0.46414 l 5.87292,0.29106 0.05,-3.80201 z m -70.85298,-22.99741 c -3.24422,-1.29714 -3.77658,-1.99471 -4.30608,-5.64236 -0.74974,-5.16491 1.40421,-11.76216 4.32289,-13.24041 1.6969,-0.859455 1.88088,-1.341835 0.90691,-2.377855 -0.99611,-1.05959 -0.3905,-1.17953 3.27817,-0.64925 3.43681,0.49677 5.26786,1.49813 7.75,4.238285 3.31798,3.66288 4.0324,5.36699 2.25,5.36699 -0.55,0 -1,0.47656 -1,1.05902 0,0.58246 0.45,0.7809 1,0.44098 0.55,-0.33992 1,-0.14148 1,0.44098 0,0.58246 -0.43588,1.05902 -0.96862,1.05902 -0.53273,0 -0.70959,0.675 -0.39301,1.5 0.31659,0.825 0.0916,1.5 -0.5,1.5 -0.59158,0 -0.81658,0.675 -0.5,1.5 0.32598,0.84948 0.0232,1.5 -0.69805,1.5 -0.70051,0 -0.99508,0.27857 -0.65461,0.61905 1.05523,1.05522 -2.08816,3.45113 -5.00832,3.81736 -1.52757,0.19158 -4.44324,-0.31774 -6.47928,-1.13181 z m 5.67621,-6.25494 c 1.89159,-3.65793 2.08234,-10.2145 0.27568,-9.47578 -2.88689,1.18043 -4.85115,5.37 -4.1843,8.92466 0.80219,4.27602 1.9022,4.43112 3.90862,0.55112 z m -21.95601,5.0357 c -1.8825,-0.73533 -1.97043,-1.64534 -1.75666,-18.179725 0.12378,-9.5731 0.22804,-18.42694 0.2317,-19.67519 0.005,-1.8699 0.44399,-2.19026 2.49015,-1.81921 3.8152,0.69182 4.74516,1.61229 4.24934,4.20598 -0.25052,1.31053 -0.0413,2.38278 0.46485,2.38278 0.50619,0 0.60949,0.50298 0.22955,1.11774 -0.94184,1.52392 -1.10699,9.88401 -0.19524,9.88304 0.4026,-4.3e-4 0.68153,2.23958 0.61984,4.977795 -0.0617,2.73821 -0.48411,4.7487 -0.93871,4.46774 -0.73787,-0.45603 -0.0879,9.51598 0.67936,10.42274 0.46142,0.54532 -2.31433,3.14253 -3.27106,3.06066 -0.45179,-0.0387 -1.71319,-0.41861 -2.80312,-0.84435 z m -42.30197,-2.33536 c -2.11504,-1.46178 -3.10616,-2.86354 -2.82918,-4.00138 0.23448,-0.96326 0.0251,-1.50339 -0.46536,-1.20029 -0.49438,0.30555 -0.6381,-0.91914 -0.32255,-2.74862 0.42903,-2.4874 0.30921,-2.93045 -0.48672,-1.79971 -0.78223,1.11129 -0.90215,0.46343 -0.46276,-2.5 0.3262,-2.2 1.12883,-4.450005 1.78363,-5.000005 0.6548,-0.55 1.48603,-1.7875 1.84719,-2.75 1.38465,-3.6902 11.54545,-1.73382 15.37672,2.96067 1.43465,1.757905 -0.37031,5.699585 -3.66745,8.008995 -1.85919,1.30222 -2.34572,1.32799 -3.08338,0.16327 -0.72627,-1.14675 -0.87847,-1.15093 -0.89117,-0.0245 -0.0107,0.94798 -0.77065,1.16883 -2.51531,0.73095 -2.02227,-0.50756 -2.5,-0.25727 -2.5,1.3098 0,5.88798 3.63491,6.6668 9,1.92836 1.925,-1.70016 2.825,-2.77057 2,-2.37869 -0.825,0.39189 -0.18839,-0.49094 1.41468,-1.96184 l 2.91468,-2.67436 1.26353,2.34369 c 0.71528,1.32673 0.85807,2.48922 0.32909,2.67909 -0.51394,0.18448 -0.67319,0.75813 -0.35388,1.27478 0.31931,0.51665 0.006,0.81571 -0.69706,0.66459 -0.7027,-0.15113 -1.29865,0.58714 -1.32433,1.64061 -0.0257,1.05346 -1.39671,2.70807 -3.04671,3.67691 -4.22739,2.48222 -9.38936,2.3492 -13.28366,-0.3423 z m 5.0378,-12 c 0.90002,-0.6875 1.92755,-2.45858 2.28341,-3.935745 0.60098,-2.49467 0.42275,-2.67936 -2.50529,-2.59611 -2.13663,0.0607 -2.73022,0.36837 -1.84228,0.95474 1.02831,0.67908 0.8926,1.18359 -0.63111,2.346115 -1.42285,1.08557 -1.55635,1.50208 -0.5,1.55995 1.02883,0.0564 1.08173,0.22384 0.1849,0.58541 -0.69093,0.27855 -1.00187,0.91803 -0.69098,1.42105 0.76622,1.23977 1.75676,1.15001 3.70135,-0.33541 z m 18.99586,12.75417 c -1.46246,-1.66107 -1.65591,-2.87307 -0.32754,-2.0521 0.5583,0.34505 0.57929,-0.71726 0.0532,-2.69098 -0.4781,-1.7936 -0.7807,-11.13609 -0.67246,-20.761095 0.18996,-16.891 0.26641,-17.48839 2.19681,-17.16642 1.1,0.18346 2.42751,0.74597 2.95002,1.25002 1.70098,1.64086 2.69252,29.906735 1.04998,29.931785 -0.66667,0.0102 -0.66667,0.26014 0,0.74993 1.61149,1.18394 1.89188,8.23198 0.3282,8.25 -1.06726,0.0123 -1.05746,0.1868 0.0499,0.8882 0.75796,0.48009 1.0689,1.37319 0.69098,1.98469 -0.96036,1.55389 -4.81937,1.31937 -6.31909,-0.38403 z m -38.96025,-2.50417 c -0.28766,-1.1 -0.88477,-2 -1.32693,-2 -0.44215,0 -1.15176,-1.4625 -1.57691,-3.25 -0.42515,-1.7875 -0.85465,-3.5875 -0.95445,-4 -0.0998,-0.4125 -0.23771,-1.60186 -0.30646,-2.64301 -0.0687,-1.04116 -0.89878,-2.189945 -1.84452,-2.552855 -0.94573,-0.36292 -1.40429,-0.34461 -1.019,0.0407 0.95515,0.955155 -3.31032,8.360965 -5.48636,9.525545 -1.2307,0.65865 -2.50439,0.44792 -4.26493,-0.70563 -2.05695,-1.3478 -2.51019,-2.44718 -2.51019,-6.08878 0,-3.104525 0.34798,-4.228935 1.15451,-3.730475 0.79128,0.48903 0.87788,0.27164 0.27526,-0.69099 -0.48359,-0.77248 -0.99746,-3.11507 -1.14194,-5.20575 -0.19361,-2.80159 0.0627,-3.6058 0.97474,-3.05805 0.8172,0.49082 0.77135,0.16862 -0.13501,-0.94875 -1.28548,-1.58474 -0.85953,-2.16312 1.29171,-1.75395 0.5056,0.0962 0.45527,-0.41305 -0.11185,-1.13158 -1.35371,-1.71514 -2.41228,-10.01873 -1.47132,-11.54124 1.11702,-1.80736 5.12085,-0.31852 5.65896,2.10431 0.26025,1.17178 0.41715,4.6055 0.34866,7.6305 -0.0685,3.025 0.0298,7.17479 0.21836,9.22175 0.3101,3.36584 0.4984,3.581 1.96914,2.25 2.04201,-1.84799 3.33975,-1.84839 6.91002,-0.002 2.69351,1.39287 5.56675,6.689065 4.31044,7.945375 -0.32176,0.32175 -0.008,0.58501 0.69828,0.58501 0.79097,0 1.08265,0.76729 0.76029,2 -0.28766,1.1 -0.0401,2 0.55004,2 0.59017,0 0.81623,0.25681 0.50235,0.57069 -0.31388,0.31388 0.0381,1.74411 0.78216,3.1783 1.58739,3.0597 1.1117,4.25101 -1.69744,4.25101 -1.1936,0 -2.25079,-0.8267 -2.55761,-2 z m 98.96025,-22.662285 c -2.04437,-0.82492 -1.42926,-6.26392 1.3844,-12.24122 3.10282,-6.59159 3.90857,-7.26186 7.02351,-5.84259 2.9238,1.33217 2.94232,2.45675 0.0921,5.59289 -1.2375,1.36164 -1.6875,2.15158 -1,1.75544 0.6875,-0.39615 1.25,-0.24371 1.25,0.33875 -1e-5,0.58246 -0.35425,1.05901 -0.78721,1.05901 -0.43295,0 -0.86041,0.97201 -0.9499,2.16003 -0.0895,1.18801 -0.74775,2.53112 -1.46281,2.98468 -0.96796,0.61399 -0.85086,0.82858 0.45838,0.83998 1.5076,0.0131 1.58028,0.30065 0.50946,2.01531 -1.18825,1.90269 -3.79296,2.43727 -6.51793,1.33772 z m 16.59286,-2.29138 -2.34286,-1.92465 2.5138,-4.81084 c 2.08262,-3.98568 2.93658,-4.76304 4.97873,-4.53211 3.96843,0.44876 4.41468,1.7071 2.38606,6.72822 -2.38031,5.8916 -4.40501,7.11124 -7.53573,4.53938 z M 61.348001,77.806125 c -9.21478,-8.0189 -10.57317,-10.12803 -5.63644,-8.75147 1.26311,0.3522 4.92768,3.04236 8.14348,5.97812 5.161,4.71157 5.60304,5.40152 3.76805,5.88138 -1.4546,0.38039 -3.33893,-0.55291 -6.27509,-3.10803 z m 11.32081,-1.62501 c -1.73838,-1.91034 -3.16068,-4.16034 -3.16068,-5 0,-0.83965 -0.35135,-1.52665 -0.78076,-1.52665 -0.9444,0 -3.38294,-6.16963 -2.70608,-6.84649 1.49254,-1.49254 5.7586,2.44188 8.468481,7.81013 1.67593,3.32 3.71567,6.03636 4.53275,6.03636 0.81709,0 1.48561,0.40186 1.48561,0.89302 0,1.50263 -2.67994,2.02122 -4.02485,0.77884 -0.97692,-0.90245 -1.10632,-0.88448 -0.56284,0.0781 1.24097,2.19805 -10e-4,1.3488 -3.251631,-2.22335 z m 900.189759,7.82347 c 0.35411,-0.63243 0.72632,-4.14356 0.82714,-7.8025 0.10081,-3.65894 0.62327,-6.92454 1.16103,-7.25689 1.37746,-0.85132 -0.0914,13.88832 -1.5135,15.18746 -0.77598,0.70889 -0.92135,0.66967 -0.47467,-0.12807 z m 1.2731,-23.88877 c -0.96498,-2.5147 -0.68031,-3.16356 0.49853,-1.13634 0.58369,1.00375 0.8506,2.03566 0.59313,2.29313 -0.25747,0.25746 -0.74872,-0.26309 -1.09166,-1.15679 z m 0.60846,-13.46135 c 0,-1.925 0.2058,-2.7125 0.45733,-1.75 0.25152,0.9625 0.25152,2.5375 0,3.5 -0.25153,0.9625 -0.45733,0.175 -0.45733,-1.75 z"
     id="path3054"
     inkscape:connector-curvature="0"
     sodipodi:nodetypes="sscssssscccsssccsccssscssssssssssssssssssscsssssssscssssssssssssssssccssscscsssscscsssssssscscsssssssssssssssscssssssscsscssccscsssssssssssssscssssssscscssssssscsssssssssssssssssssscssssssscssssssssssssscscsssssssssssccsscsscssssscsssscssscssssscscscsssscscsscssssssssssssssccsssssssscssssscscsssscssssscssscssssscssssscssscscscsssscssscscscssssscscscsscscsscssssscssssssssssscscccssssssssssssssscsssssssscsssssssssscscsssssssscssssscscsccsscsscsscssssscssscssssscssscccsssssscscsssscsccssssssccssssscssccssscssssssscscssssssscscsssssssssss" />
  <path
     style="fill:#000000"
     d=""
     id="path3029"
     inkscape:connector-curvature="0" />
  <g
     style="font-size:56px;font-style:normal;font-variant:normal;font-weight:bold;font-stretch:normal;text-align:center;line-height:125%;letter-spacing:0px;word-spacing:0px;writing-mode:lr-tb;text-anchor:middle;fill:#000000;fill-opacity:1;stroke:none;font-family:ChrisMcCormickTwentyEleven;-inkscape-font-specification:ChrisMcCormickTwentyEleven Bold"
     id="text3056">
    <path
       d="m 33.973328,213.48529 1.613281,0 c -7e-6,0.72919 0.647128,1.26695 1.941406,1.61328 -8e-6,0.49222 0.109367,0.92972 0.328125,1.3125 -0.218758,1.14846 -0.328133,2.11461 -0.328125,2.89844 l 0.328125,0 c 2.38801,-2.36977 5.623684,-3.55466 9.707031,-3.55469 1.713522,3e-5 3.436176,1.72268 5.167969,5.16797 -2.3e-5,0.21877 -0.109398,0.32815 -0.328125,0.32813 l 0.328125,1.61328 0,0.32812 -0.328125,0.62891 0.65625,0 c -2.4e-5,0.91147 0.109351,2.09637 0.328125,3.55469 l -1.3125,3.2539 0.328125,1.94141 -0.65625,0 0,0.30078 0.328125,1.64062 c -1.093772,0.83855 -1.841167,2.02345 -2.242187,3.55469 -1.148457,0.85678 -1.904967,1.28516 -2.269532,1.28516 -1.130225,0.85677 -2.752619,1.28516 -4.867187,1.28515 l 0,-0.6289 -1.285156,0 c -0.984387,0 -2.169281,-0.54687 -3.554688,-1.64063 l -0.328125,0 0,0.98438 0.328125,0.65625 -0.65625,0 0.328125,0.6289 c -0.638028,2.27865 -0.957039,3.68229 -0.957031,4.21094 l 0,4.21094 c -8e-6,0.47395 -0.109382,0.90233 -0.328125,1.28516 0.218743,0.3828 0.328117,0.81118 0.328125,1.28515 l 0,2.59766 -0.984375,0 c 0.218743,0.25519 0.328118,0.90233 0.328125,1.9414 -0.419277,0.0547 -0.628913,0.26431 -0.628906,0.62891 l 0.628906,1.61328 c -0.218757,1.29425 -0.428392,1.94139 -0.628906,1.94141 l 0.300781,0.65625 c -0.492194,1.29425 -0.920579,1.94138 -1.285156,1.9414 l -1.285157,0 c -0.218753,-2e-5 -0.328128,-0.10939 -0.328125,-0.32812 l -0.65625,0.32812 -0.328125,0 c -0.309898,-2e-5 -0.628908,-0.4284 -0.957031,-1.28515 0.273436,-2.80731 0.592446,-4.21096 0.957031,-4.21094 l -0.300781,-0.65625 c 0.273435,-1.07553 0.592445,-1.61329 0.957031,-1.61328 l -0.328125,-0.62891 c -3e-6,-0.21876 0.109372,-0.32813 0.328125,-0.32812 l -0.328125,-0.65625 0,-2.26953 c -3e-6,-0.20053 0.109372,-0.30079 0.328125,-0.30078 -3e-6,-0.21876 -0.109378,-0.32814 -0.328125,-0.32813 0.492184,-5.26823 0.929684,-8.07552 1.3125,-8.42187 -0.218754,-0.36459 -0.328129,-0.79297 -0.328125,-1.28516 -4e-6,-0.21875 0.109371,-0.32812 0.328125,-0.32813 l -0.328125,-1.61328 0,-1.9414 c 0.05468,-2.58854 0.264319,-3.88281 0.628907,-3.88282 l -0.300782,-0.6289 c 0.419267,-2.04166 0.628902,-3.66405 0.628907,-4.86719 l -0.328125,-0.62891 0.328125,-0.65625 -0.628907,-1.9414 c 0.200517,-0.3828 0.300777,-0.81118 0.300782,-1.28516 -5e-6,-0.16404 -0.100265,-0.81118 -0.300782,-1.9414 l 0.628907,-1.28516 c -0.473963,2e-5 -0.792973,-1.18487 -0.957032,-3.55469 0.856766,-1.02081 1.285151,-1.66794 1.285157,-1.9414 -0.218755,-0.41925 -0.32813,-0.74737 -0.328125,-0.98438 m 3.882812,16.81641 0.328125,0 c -9e-6,-0.5651 0.856761,-0.99348 2.570313,-1.28516 l 0.328125,0.62891 c -0.0547,0.58334 -0.59246,1.1211 -1.613282,1.61328 -10e-6,0.94792 -0.209645,1.92318 -0.628906,2.92578 -1e-5,1.9323 1.39452,2.89844 4.183594,2.89844 2.588525,0 4.31118,-1.18489 5.167969,-3.55469 0.401022,-1.93228 0.729146,-2.89843 0.984375,-2.89844 l -0.328125,-1.61328 c -2e-5,-0.91144 0.21873,-1.99608 0.65625,-3.25391 l -0.328125,-0.6289 0,-0.98438 -0.328125,0 0,-1.28515 c -0.63804,-2.58852 -1.604185,-3.88279 -2.898438,-3.88282 -2.041681,3e-5 -3.664076,1.07555 -4.867187,3.22657 -1.713552,0.9297 -2.570322,2.98048 -2.570313,6.15234 -0.218759,1e-5 -0.437509,0.64715 -0.65625,1.94141"
       style=""
       id="path3480" />
    <path
       d="m 60.770203,214.46967 0.984375,0 c -7e-6,0.21877 0.100254,0.53778 0.300781,0.95703 l 0.65625,-0.32813 0.328125,0 c 0.638013,0.21878 0.957023,0.86591 0.957031,1.94141 l 0,0.65625 c -0.783862,1.44012 -1.321622,2.94403 -1.613281,4.51172 l -0.628906,0.32812 c -7e-6,0.21877 0.100254,0.32815 0.300781,0.32813 -0.419277,1.75001 -0.738287,3.80079 -0.957031,6.15234 0.218744,1e-5 0.328119,0.10027 0.328125,0.30078 -0.218756,1e-5 -0.328131,0.10939 -0.328125,0.32813 l 0.328125,0 c 1.494784,-2.78905 2.460929,-4.18358 2.898437,-4.1836 0.747386,-1.93227 2.151031,-3.66404 4.210938,-5.19531 2.351547,-3.22654 4.830711,-4.83982 7.4375,-4.83984 2.588518,0.21877 3.882788,1.40367 3.882812,3.55468 l -0.328125,0 c 0.218726,0.65628 0.428361,0.9844 0.628906,0.98438 l -0.300781,1.61328 0,0.95703 -1.3125,0 c -0.583356,2e-5 -1.011741,-1.0755 -1.285156,-3.22656 -0.528667,-0.43748 -0.957052,-0.65623 -1.285156,-0.65625 -1.95054,0.52867 -2.925799,1.39455 -2.925782,2.59766 -2.770848,1.71356 -4.274752,3.21746 -4.511718,4.51171 -1.622408,2.05991 -2.916677,4.11069 -3.882813,6.15235 -1.786465,3.57292 -3.399745,5.83334 -4.839844,6.78125 -1.731773,0 -2.597658,-1.61328 -2.597656,-4.83985 l 0,-5.49609 c -2e-6,-0.21874 0.109373,-0.32811 0.328125,-0.32812 -2e-6,-0.21874 -0.109377,-0.32812 -0.328125,-0.32813 0.255207,-1.91405 0.473956,-3.09894 0.65625,-3.55469 -0.218752,2e-5 -0.328127,-0.10935 -0.328125,-0.32812 l 0.957031,0 c -0.218752,-0.40103 -0.328127,-0.72004 -0.328125,-0.95703 0.565101,-4.52081 1.002601,-6.78123 1.3125,-6.78125 0.856766,-0.65623 1.285151,-1.19399 1.285157,-1.61328"
       style=""
       id="path3482" />
    <path
       d="m 101.15692,212.82904 c 0.41925,0.073 0.62889,0.2917 0.62891,0.65625 l 0.65625,-0.32812 c 0.51039,2e-5 1.2669,0.64716 2.26953,1.9414 l 0.30078,0 c 0.21873,2.69794 0.3281,4.21096 0.32813,4.53906 -0.63805,2.57034 -1.71357,4.612 -3.22657,6.125 -1.85939,1.60419 -3.910169,2.78908 -6.152341,3.55469 l 0,-0.30078 -0.628906,0.30078 -0.984375,0 c -2.151052,1e-5 -3.226572,-0.20962 -3.226563,-0.6289 l -0.65625,0.32812 -0.300781,0 -0.984375,-0.65625 -0.957031,0 -0.328125,1.94141 c 0.856764,1e-5 1.285149,0.21876 1.285156,0.65625 1.312492,1.22136 4.329416,2.29688 9.050781,3.22656 3.15363,0.41928 4.87628,0.62891 5.16797,0.62891 l 1.94141,0 c 0.49216,0.49219 1.67705,0.82031 3.55468,0.98437 l 0,2.57031 c -0.41929,1e-5 -0.62893,0.21876 -0.6289,0.65625 l -0.32813,0 c -0.21877,1e-5 -0.32815,-0.10937 -0.32812,-0.32812 l -0.65625,0.32812 -0.30078,0 c -0.21878,1e-5 -0.32815,-0.10937 -0.32813,-0.32812 -0.21877,0 -0.32815,0.10938 -0.32812,0.32812 -5.487,1e-5 -9.798196,-0.64713 -12.933599,-1.9414 l -0.65625,0.32812 -5.496093,-2.89844 c -1.294274,-1.09374 -1.941409,-2.069 -1.941407,-2.92578 -2e-6,-0.30988 -0.319012,-0.62889 -0.957031,-0.95703 0.911456,-5.48696 2.424475,-9.47914 4.539063,-11.97656 0.419264,2e-5 0.628899,-0.20961 0.628906,-0.62891 -0.218757,3e-5 -0.328132,-0.10935 -0.328125,-0.32812 0.71093,2e-5 1.576815,-0.64711 2.597656,-1.94141 0.929678,-0.21872 2.005197,-0.64711 3.226563,-1.28515 -1.3e-5,0.20054 0.109362,0.3008 0.328125,0.30078 l 0,-0.30078 c -0.218763,2e-5 -0.328138,-0.10935 -0.328125,-0.32813 -1.3e-5,-0.43747 2.160141,-0.87497 6.480467,-1.3125 m -3.253905,3.58203 c -1.5e-5,0.4193 -1.394545,0.95706 -4.183594,1.61328 l -3.882812,4.1836 c -8e-6,0.52866 -0.328132,1.06642 -0.984375,1.61328 l 0,0.65625 c 1.895825,0.21877 3.299469,0.54689 4.210937,0.98437 4.101548,-0.34633 6.152327,-1.10284 6.152344,-2.26953 1.713525,-1.31248 2.570295,-3.25388 2.570315,-5.82422 l -0.32813,0 c -0.20054,3e-5 -0.3008,-0.31898 -0.30078,-0.95703 l -2.92578,0.30078 c -1.6e-5,-0.20049 -0.109391,-0.30075 -0.328125,-0.30078"
       style=""
       id="path3484" />
    <path
       d="m 126.28583,217.28607 5.19531,0 c 2.69789,0.96617 4.30206,1.72268 4.8125,2.26953 0.43747,0.0729 0.65622,0.29169 0.65625,0.65625 l 0,3.88282 c -1.31252,1e-5 -2.49742,-0.64712 -3.55469,-1.94141 l -9.02343,0 0,0.30078 -0.65625,-0.30078 -2.57032,0 c -3.6823,2e-5 -5.52344,0.4284 -5.52343,1.28516 -0.25522,1e-5 -1.11199,-0.7565 -2.57032,-2.26954 l 0,-0.95703 c 0,-1.51299 0.7474,-2.2695 2.24219,-2.26953 l 0,-0.32812 0.32813,0 c -1e-5,0.43752 0.10937,0.65627 0.32812,0.65625 0.21875,2e-5 0.32812,-0.10935 0.32813,-0.32813 l 1.58593,0.32813 1.64063,0 1.64062,-0.32813 c -1e-5,0.21878 0.0911,0.32815 0.27344,0.32813 0.0729,-0.43748 0.29166,-0.65623 0.65625,-0.65625 l 1.3125,0 c 0.21874,2e-5 0.32811,0.1094 0.32813,0.32812 0.76561,-0.43747 1.62238,-0.65622 2.57031,-0.65625"
       style=""
       id="path3486" />
    <path
       d="m 143.78583,199.26654 0.65625,0 c -1e-5,0.43754 0.42838,0.9753 1.28515,1.61328 0,0.21879 -0.10938,0.32817 -0.32812,0.32813 0.21874,0.41931 0.32812,0.73832 0.32812,0.95703 l -0.32812,3.88281 0.32812,0.65625 c -0.21875,0.34639 -0.32813,0.88415 -0.32812,1.61328 l -0.62891,-0.32812 c 0,0.43753 -0.21875,0.65628 -0.65625,0.65625 l -0.65625,0 c -1.07552,-0.40101 -1.82292,-1.58591 -2.24218,-3.55469 l 0.30078,0 -0.30078,-0.65625 0,-0.32813 c -1e-5,-0.21871 0.10025,-0.32808 0.30078,-0.32812 l -0.30078,-0.62891 0,-1.9414 c -1e-5,-1.29423 0.85676,-1.94137 2.57031,-1.94141 m -0.95703,15.20313 0.32812,0 c 0.58333,0.74742 1.54947,1.39455 2.89844,1.9414 l 0.32812,1.91406 c -0.21875,0.4193 -0.32813,0.74742 -0.32812,0.98438 -1e-5,0.21877 0.10937,0.32815 0.32812,0.32812 -0.21875,2.15107 -0.4375,3.22659 -0.65625,3.22657 0,0.21877 0.10937,0.32814 0.32813,0.32812 -0.43751,7.10939 -0.86589,10.66407 -1.28516,10.66406 l 0.32813,1.61329 0,1.61328 c -0.43751,0.49219 -0.65626,1.2487 -0.65625,2.26953 -0.21876,0 -0.32813,-0.10937 -0.32813,-0.32813 l -0.65625,0.32813 -0.95703,0 -0.65625,-0.32813 c 0,0.43751 -0.20964,0.65626 -0.6289,0.65625 l -0.32813,0 c 0,-0.96614 -0.10938,-1.61327 -0.32812,-1.9414 0.21874,-1.47656 0.32812,-2.66145 0.32812,-3.55469 l 0,-2.26953 c 0,-0.21874 0.10937,-0.32812 0.32813,-0.32813 -1e-5,-0.21874 -0.10938,-0.32811 -0.32813,-0.32812 0.21875,-2.78905 0.42838,-4.18358 0.62891,-4.1836 -1e-5,-0.21873 -0.10027,-0.32811 -0.30078,-0.32812 l 0.30078,-2.26953 0,-5.16797 c -1e-5,-1.53123 -0.20964,-2.71612 -0.62891,-3.55469 0.5651,3e-5 1.21224,-0.42836 1.94141,-1.28515"
       style=""
       id="path3488" />
    <path
       d="m 173.4538,211.87201 0.98437,0 1.28516,1.94141 c 0.43747,0.30992 1.0846,3.64585 1.9414,10.00781 l -0.32812,1.64062 0,2.24219 -0.32813,0.65625 c 0.21873,1e-5 0.3281,0.10939 0.32813,0.32813 l 0.65625,-0.32813 0.62891,0 c -3e-5,1.9323 -0.31905,2.89845 -0.95704,2.89844 l 0.32813,0.65625 0,1.9414 c -3e-5,0.21876 -0.10941,0.32814 -0.32813,0.32813 l 0.32813,0.62891 c -0.65628,1.22136 -0.9844,2.19662 -0.98438,2.92578 l -0.95703,-0.65625 -0.32812,0.65625 c -1.51305,-0.23698 -2.26956,-1.53125 -2.26953,-3.88282 0.21872,-0.3828 0.3281,-0.81118 0.32812,-1.28515 -2e-5,-0.21874 -0.1094,-0.32812 -0.32812,-0.32813 l 0.32812,-1.61328 0,-8.09375 c -0.43752,-1.98696 -0.65627,-3.60024 -0.65625,-4.83984 -0.92971,0.5469 -2.43361,3.6732 -4.51172,9.3789 -0.40106,1.62241 -0.82944,2.58856 -1.28515,2.89844 -1.09377,3.02605 -2.49742,4.53907 -4.21094,4.53906 -1.29429,1e-5 -1.94142,-1.40363 -1.94141,-4.21093 l 0,-1.61328 0.65625,0 0,-0.32813 c -0.65626,1e-5 -0.98438,-0.42837 -0.98437,-1.28516 l 0.32812,0 c -0.34636,-1.58592 -0.67449,-3.6367 -0.98437,-6.15234 l -0.62891,0 0.32813,0.65625 c -1.29428,1.42189 -2.58855,4.75783 -3.88282,10.00781 l -0.98437,1.28516 0.32812,0.65625 0,0.65625 c -0.27344,1e-5 -0.8112,0.53777 -1.61328,1.61328 -0.63802,1e-5 -0.95703,0.31902 -0.95703,0.95703 -0.875,-0.10937 -1.3125,-0.42838 -1.3125,-0.95703 l -0.6289,0.32813 c -1e-5,-0.38281 -0.21876,-0.92057 -0.65625,-1.61329 l 1.28515,-4.53906 c -0.21875,-0.41926 -0.32813,-0.73827 -0.32812,-0.95703 0.43749,-0.71092 0.65624,-1.35806 0.65625,-1.94141 l 0,-0.98437 c 0.78385,2e-5 1.32161,-2.2604 1.61328,-6.78125 -0.21876,-0.41925 -0.32813,-0.74737 -0.32813,-0.98438 0.4375,3e-5 0.65625,-0.20961 0.65625,-0.6289 l 0,-3.55469 c 0,-0.30987 0.32812,-0.63799 0.98438,-0.98437 l 0.6289,0 2.26954,0.32812 c -0.21876,1.13024 -0.32814,1.77737 -0.32813,1.94141 0.21874,0.41929 0.32812,0.74742 0.32813,0.98437 -0.21876,0.36461 -0.32814,0.793 -0.32813,1.28516 0.54687,2e-5 1.08463,-1.0755 1.61328,-3.22656 2.58853,2e-5 3.8828,1.07554 3.88281,3.22656 0.60155,1.56773 1.13931,4.04689 1.61329,7.4375 -0.21877,0.85678 -0.32815,1.60418 -0.32813,2.24219 l 0.65625,0.32812 3.22656,-8.72266 c 2.13279,-4.17445 3.96482,-6.54424 5.4961,-7.10937"
       style=""
       id="path3490" />
    <path
       d="m 200.55145,214.77045 c 1.58592,2e-5 2.4518,0.32815 2.59766,0.98437 l 0,2.26953 c -0.51044,1.2943 -0.83856,1.94143 -0.98438,1.94141 l 0.32813,0.62891 0,0.32812 c -1.00263,1.25783 -1.75914,2.98049 -2.26953,5.16797 -0.3646,1.51303 -0.68361,2.26954 -0.95703,2.26953 l 0.32812,0.65625 0,0.30078 c -2e-5,0.21876 -0.10939,0.32814 -0.32812,0.32813 -2e-5,0.21876 0.10935,0.32813 0.32812,0.32812 l -0.32812,1.61328 0,0.65625 c 0.41925,1.53126 0.62888,2.38803 0.6289,2.57032 l 0,1.3125 c 2.36977,0 3.66404,0.64714 3.88282,1.9414 -0.8568,1e-5 -1.28518,0.31902 -1.28516,0.95703 l -0.32813,0 c -0.21877,1e-5 -0.32814,-0.10937 -0.32812,-0.32812 l -0.62891,0.32812 c -1.8047,1e-5 -3.31772,-1.29426 -4.53906,-3.88281 l -0.32812,0 0,-0.62891 c -2e-5,-1.09374 -0.20966,-2.38801 -0.62891,-3.88281 -0.9297,0.98439 -2.5521,2.16928 -4.86719,3.55469 l 0,0.32812 -1.9414,0 0,0.62891 -0.62891,-0.32812 -0.65625,0 -0.95703,0.65625 -0.32813,0 0,-1.28516 -0.65625,0 -0.6289,0.32812 c -1e-5,-0.27343 -0.64714,-0.8203 -1.94141,-1.64062 -0.4375,-0.85676 -0.65625,-1.60416 -0.65625,-2.24219 0,-3.77342 0.42838,-6.36196 1.28516,-7.76562 l -0.32813,-0.65625 c 0.72916,2e-5 1.27604,-0.64712 1.64063,-1.94141 1.20312,-1.2031 2.59765,-1.9505 4.18359,-2.24219 0.34635,-1.07549 2.069,-1.61325 5.16797,-1.61328 -1e-5,-0.21872 1.513,-0.3281 4.53906,-0.32812 l 1.28516,0 0.32812,-1.3125 m -4.21093,3.88281 0,0.98437 -0.30079,0 c -0.21876,3e-5 -0.32814,-0.10935 -0.32812,-0.32812 -2.91668,2e-5 -5.39584,1.07554 -7.4375,3.22656 l -0.65625,0 0,0.32813 0.32812,0.65625 c -0.85677,2e-5 -1.61328,0.96616 -2.26953,2.89843 0,0.21877 0.10937,0.32814 0.32813,0.32813 l -0.32813,2.26953 0,1.94141 1.94141,0 c 0.21874,1e-5 0.32812,0.10027 0.32812,0.30078 l 0.65625,-0.30078 0.62891,0.30078 c -1e-5,-0.30989 0.97525,-0.95702 2.92578,-1.94141 3.66405,-2.93488 5.49608,-6.16144 5.4961,-9.67969 -0.21877,-0.41924 -0.32815,-0.74737 -0.32813,-0.98437 l -0.98437,0"
       style=""
       id="path3492" />
    <path
       d="m 218.92645,211.21576 c 0.85676,0.21878 2.04165,0.32815 3.55469,0.32812 l 0,-0.32812 1.28516,0 c 0.43748,0.073 0.65623,0.2917 0.65625,0.65625 -0.21877,0.4193 -0.32815,0.73831 -0.32813,0.95703 0.43748,0.073 0.65623,0.2917 0.65625,0.65625 l 0,2.26953 -0.98437,0 c -0.47398,3e-5 -0.90236,0.1094 -1.28516,0.32813 -1.75001,-1.29425 -2.82553,-1.94138 -3.22656,-1.94141 l -0.65625,0.32813 -0.65625,-0.32813 c -1.2396,3e-5 -2.20574,1.07555 -2.89844,3.22656 l 0.32813,0.65625 0,0.62891 c -1e-5,0.49221 -0.10939,0.92971 -0.32813,1.3125 0.21874,0.40106 0.32812,0.72007 0.32813,0.95703 l -0.32813,0 c 1.80468,6.03387 3.41796,9.05079 4.83984,9.05078 -1e-5,0.43751 0.53775,0.65626 1.61329,0.65625 l 0.32812,0 c 1.31248,1e-5 2.49738,-0.7565 3.55469,-2.26953 l 0,-2.89844 c 0.0729,-0.43748 0.29164,-0.65623 0.65625,-0.65625 -0.43752,-1.09373 -0.65627,-1.85024 -0.65625,-2.26953 l 0.65625,-0.32812 c -0.21877,-1.49477 -0.43752,-2.24217 -0.65625,-2.24219 l 0.32812,-1.64063 0,-2.57031 c -2e-5,-0.21872 0.10936,-0.3281 0.32813,-0.32812 l -0.32813,-0.65625 c 0.0364,-0.4557 0.68358,-1.10284 1.94141,-1.94141 1.73175,1.02086 2.59763,1.668 2.59766,1.94141 l -0.65625,1.64062 c 0.43747,0.0547 0.65622,0.26435 0.65625,0.62891 l -0.32813,1.61328 c 0.21873,0.41929 0.3281,0.74742 0.32813,0.98437 -0.21878,0.4193 -0.32815,0.73831 -0.32813,0.95704 l 0.32813,0.65625 -0.32813,0.6289 0.32813,1.64063 c -3e-5,0.21876 -0.1094,0.53778 -0.32813,0.95703 0.27341,2.40626 0.48305,3.91928 0.62891,4.53906 -0.20055,0.3646 -0.30081,0.79298 -0.30078,1.28516 0.20049,0.41928 0.30075,0.73829 0.30078,0.95703 -0.4193,0.0729 -0.62893,0.29168 -0.62891,0.65625 -2e-5,0.63803 0.10935,0.95704 0.32813,0.95703 l -0.65625,3.88281 0.32812,1.94141 c -0.51044,3.66406 -0.83856,5.49609 -0.98437,5.49609 l 0.32812,0.65625 c -0.30992,2.15104 -0.62893,3.22656 -0.95703,3.22656 l 0.30078,0.65625 c -0.12763,1.07552 -0.66539,1.61328 -1.61328,1.61329 l 0.32812,1.61328 c -4.48439,5.59634 -7.72006,8.39451 -9.70703,8.39453 -0.0365,0.43748 -1.22136,0.87498 -3.55468,1.3125 -1e-5,-0.65627 -0.20965,-0.9844 -0.62891,-0.98438 l -0.65625,0.32813 c -1e-5,-0.38283 -0.85678,-1.02997 -2.57031,-1.94141 -1.29428,-2.33335 -1.94141,-4.38413 -1.94141,-6.15234 0.20052,-1e-5 0.30078,-0.10027 0.30078,-0.30078 -0.34636,-1e-5 -0.66537,-0.21876 -0.95703,-0.65625 0.36458,-3.95574 0.68359,-6.00652 0.95703,-6.15235 l -0.30078,-0.6289 c 0.74739,-1.29428 1.28515,-1.94141 1.61328,-1.94141 l 0.62891,0 0,0.62891 0.65625,-0.30078 c 0.41926,-1e-5 0.84765,0.64713 1.28515,1.9414 -0.41927,0.78385 -0.95703,2.61588 -1.61328,5.4961 0,2.04165 0.75651,4.19269 2.26953,6.45312 1.16666,-2e-5 1.92317,0.319 2.26954,0.95703 2.62498,-0.8021 5.53253,-3.38152 8.72265,-7.73828 -2e-5,-0.6198 0.64712,-2.5612 1.94141,-5.82422 l 0,-0.32812 c -2e-5,-0.21876 -0.1094,-0.32813 -0.32813,-0.32813 0.43748,-2.3151 0.65623,-4.79427 0.65625,-7.4375 l 0,-1.61328 c 0.41925,1e-5 0.62889,-0.10937 0.62891,-0.32812 l -0.30078,-0.62891 0.30078,-0.65625 c -0.20054,-0.41926 -0.3008,-0.73827 -0.30078,-0.95703 -0.21877,10e-6 -0.76565,0.53777 -1.64063,1.61328 l -1.61328,-0.32813 -2.89844,0 -0.98437,-0.65625 -0.62891,0.32813 c -1.73178,-0.63801 -2.59766,-1.49478 -2.59765,-2.57031 -0.94793,1e-5 -1.70444,-0.97525 -2.26953,-2.92578 -0.41928,1e-5 -0.62892,-0.21874 -0.62891,-0.65625 l 0,-1.91407 c -0.9297,2e-5 -1.57683,-1.62237 -1.94141,-4.86718 l 0.32813,-0.62891 c -0.14584,-1.73175 -0.36459,-2.59763 -0.65625,-2.59766 1.07551,-3.66403 2.47916,-5.49606 4.21094,-5.49609 -1e-5,-0.30987 1.18488,-0.52862 3.55468,-0.65625"
       style=""
       id="path3494" />
    <path
       d="m 251.54755,212.82904 c 0.41925,0.073 0.62888,0.2917 0.6289,0.65625 l 0.65625,-0.32812 c 0.5104,2e-5 1.26691,0.64716 2.26953,1.9414 l 0.30079,0 c 0.21872,2.69794 0.3281,4.21096 0.32812,4.53906 -0.63804,2.57034 -1.71356,4.612 -3.22656,6.125 -1.8594,1.60419 -3.91017,2.78908 -6.15235,3.55469 l 0,-0.30078 -0.6289,0.30078 -0.98438,0 c -2.15105,1e-5 -3.22657,-0.20962 -3.22656,-0.6289 l -0.65625,0.32812 -0.30078,0 -0.98438,-0.65625 -0.95703,0 -0.32812,1.94141 c 0.85676,1e-5 1.28515,0.21876 1.28515,0.65625 1.3125,1.22136 4.32942,2.29688 9.05079,3.22656 3.15362,0.41928 4.87628,0.62891 5.16796,0.62891 l 1.94141,0 c 0.49216,0.49219 1.67706,0.82031 3.55469,0.98437 l 0,2.57031 c -0.4193,1e-5 -0.62893,0.21876 -0.62891,0.65625 l -0.32812,0 c -0.21878,1e-5 -0.32815,-0.10937 -0.32813,-0.32812 l -0.65625,0.32812 -0.30078,0 c -0.21877,1e-5 -0.32815,-0.10937 -0.32812,-0.32812 -0.21878,0 -0.32815,0.10938 -0.32813,0.32812 -5.487,1e-5 -9.79819,-0.64713 -12.93359,-1.9414 l -0.65625,0.32812 -5.4961,-2.89844 c -1.29427,-1.09374 -1.94141,-2.069 -1.9414,-2.92578 -1e-5,-0.30988 -0.31902,-0.62889 -0.95703,-0.95703 0.91145,-5.48696 2.42447,-9.47914 4.53906,-11.97656 0.41926,2e-5 0.6289,-0.20961 0.6289,-0.62891 -0.21875,3e-5 -0.32813,-0.10935 -0.32812,-0.32812 0.71093,2e-5 1.57681,-0.64711 2.59766,-1.94141 0.92967,-0.21872 2.00519,-0.64711 3.22656,-1.28515 -1e-5,0.20054 0.10936,0.3008 0.32812,0.30078 l 0,-0.30078 c -0.21876,2e-5 -0.32813,-0.10935 -0.32812,-0.32813 -1e-5,-0.43747 2.16014,-0.87497 6.48047,-1.3125 m -3.25391,3.58203 c -2e-5,0.4193 -1.39455,0.95706 -4.18359,1.61328 l -3.88282,4.1836 c 0,0.52866 -0.32813,1.06642 -0.98437,1.61328 l 0,0.65625 c 1.89582,0.21877 3.29947,0.54689 4.21094,0.98437 4.10154,-0.34633 6.15232,-1.10284 6.15234,-2.26953 1.71352,-1.31248 2.57029,-3.25388 2.57031,-5.82422 l -0.32812,0 c -0.20054,3e-5 -0.3008,-0.31898 -0.30078,-0.95703 l -2.92578,0.30078 c -2e-5,-0.20049 -0.1094,-0.30075 -0.32813,-0.30078"
       style=""
       id="path3496" />
  </g>
  <g
     style="font-size:56px;font-style:normal;font-variant:normal;font-weight:bold;font-stretch:normal;text-align:center;line-height:125%;letter-spacing:0px;word-spacing:0px;writing-mode:lr-tb;text-anchor:middle;fill:#000000;fill-opacity:1;stroke:none;font-family:ChrisMcCormickTwentyEleven;-inkscape-font-specification:ChrisMcCormickTwentyEleven Bold"
     id="text3060">
    <path
       d="m 776.44458,211.3763 0.65625,0 c -10e-6,0.43754 0.42838,0.9753 1.28516,1.61328 -10e-6,0.21879 -0.10939,0.32816 -0.32813,0.32812 0.21874,0.41931 0.32812,0.73832 0.32813,0.95703 l -0.32813,3.88282 0.32813,0.65625 c -0.21876,0.34639 -0.32814,0.88415 -0.32813,1.61328 l -0.6289,-0.32813 c -10e-6,0.43754 -0.21876,0.65629 -0.65625,0.65625 l -0.65625,0 c -1.07553,-0.401 -1.82292,-1.5859 -2.24219,-3.55468 l 0.30078,0 -0.30078,-0.65625 0,-0.32813 c 0,-0.21871 0.10026,-0.32809 0.30078,-0.32812 l -0.30078,-0.62891 0,-1.94141 c 0,-1.29423 0.85677,-1.94136 2.57031,-1.9414 m -0.95703,15.20312 0.32812,0 c 0.58333,0.74742 1.54948,1.39456 2.89844,1.94141 l 0.32813,1.91406 c -0.21876,0.41929 -0.32814,0.74742 -0.32813,0.98438 -10e-6,0.21877 0.10937,0.32814 0.32813,0.32812 -0.21876,2.15106 -0.43751,3.22658 -0.65625,3.22656 -10e-6,0.21877 0.10936,0.32815 0.32812,0.32813 -0.43751,7.10938 -0.86589,10.66407 -1.28515,10.66406 l 0.32812,1.61328 0,1.61328 c -0.43751,0.4922 -0.65626,1.2487 -0.65625,2.26953 -0.21876,1e-5 -0.32813,-0.10937 -0.32812,-0.32812 l -0.65625,0.32812 -0.95704,0 -0.65625,-0.32812 c 0,0.4375 -0.20963,0.65625 -0.6289,0.65625 l -0.32813,0 c 0,-0.96614 -0.10937,-1.61328 -0.32812,-1.94141 0.21875,-1.47655 0.32812,-2.66145 0.32812,-3.55468 l 0,-2.26954 c 0,-0.21874 0.10938,-0.32811 0.32813,-0.32812 0,-0.21874 -0.10938,-0.32811 -0.32813,-0.32813 0.21875,-2.78904 0.42839,-4.18357 0.62891,-4.18359 0,-0.21873 -0.10026,-0.32811 -0.30078,-0.32812 l 0.30078,-2.26954 0,-5.16796 c 0,-1.53123 -0.20964,-2.71612 -0.62891,-3.55469 0.5651,2e-5 1.21224,-0.42836 1.94141,-1.28516"
       style=""
       id="path3469" />
    <path
       d="m 806.11255,223.98177 0.98437,0 1.28516,1.9414 c 0.43747,0.30993 1.08461,3.64586 1.94141,10.00781 l -0.32813,1.64063 0,2.24219 -0.32812,0.65625 c 0.21872,1e-5 0.32809,0.10939 0.32812,0.32812 l 0.65625,-0.32812 0.62891,0 c -3e-5,1.9323 -0.31904,2.89845 -0.95703,2.89843 l 0.32812,0.65625 0,1.94141 c -3e-5,0.21876 -0.1094,0.32813 -0.32812,0.32813 l 0.32812,0.6289 c -0.65628,1.22136 -0.9844,2.19662 -0.98437,2.92578 l -0.95703,-0.65625 -0.32813,0.65625 c -1.51305,-0.23697 -2.26956,-1.53124 -2.26953,-3.88281 0.21872,-0.3828 0.3281,-0.81119 0.32812,-1.28516 -2e-5,-0.21874 -0.1094,-0.32811 -0.32812,-0.32812 l 0.32812,-1.61328 0,-8.09375 c -0.43752,-1.98696 -0.65627,-3.60024 -0.65625,-4.83985 -0.92971,0.5469 -2.43361,3.6732 -4.51171,9.37891 -0.40107,1.62241 -0.82945,2.58855 -1.28516,2.89844 -1.09377,3.02605 -2.49741,4.53907 -4.21094,4.53906 -1.29428,1e-5 -1.94142,-1.40364 -1.9414,-4.21094 l 0,-1.61328 0.65625,0 0,-0.32812 c -0.65627,1e-5 -0.98439,-0.42837 -0.98438,-1.28516 l 0.32813,0 c -0.34637,-1.58592 -0.6745,-3.6367 -0.98438,-6.15234 l -0.62891,0 0.32813,0.65625 c -1.29428,1.42189 -2.58855,4.75783 -3.88281,10.00781 l -0.98438,1.28516 0.32813,0.65625 0,0.65625 c -0.27345,0 -0.81121,0.53776 -1.61328,1.61328 -0.63803,0 -0.95704,0.31901 -0.95704,0.95703 -0.875,-0.10937 -1.3125,-0.42838 -1.3125,-0.95703 l -0.6289,0.32812 c 0,-0.3828 -0.21875,-0.92056 -0.65625,-1.61328 l 1.28515,-4.53906 c -0.21875,-0.41926 -0.32812,-0.73827 -0.32812,-0.95703 0.4375,-0.71093 0.65625,-1.35806 0.65625,-1.94141 l 0,-0.98437 c 0.78385,10e-6 1.32161,-2.2604 1.61328,-6.78125 -0.21875,-0.41925 -0.32813,-0.74738 -0.32812,-0.98438 0.43749,2e-5 0.65624,-0.20961 0.65625,-0.62891 l 0,-3.55468 c -10e-6,-0.30987 0.32811,-0.638 0.98437,-0.98438 l 0.62891,0 2.26953,0.32813 c -0.21876,1.13023 -0.32814,1.77737 -0.32813,1.9414 0.21874,0.4193 0.32812,0.74742 0.32813,0.98438 -0.21876,0.36461 -0.32814,0.79299 -0.32813,1.28515 0.54687,3e-5 1.08463,-1.07549 1.61328,-3.22656 2.58853,3e-5 3.8828,1.07555 3.88282,3.22656 0.60154,1.56774 1.1393,4.0469 1.61328,7.4375 -0.21877,0.85679 -0.32814,1.60419 -0.32813,2.24219 l 0.65625,0.32813 3.22657,-8.72266 c 2.13279,-4.17445 3.96482,-6.54424 5.49609,-7.10937"
       style=""
       id="path3471" />
    <path
       d="m 833.21021,226.8802 c 1.58591,3e-5 2.4518,0.32816 2.59765,0.98438 l 0,2.26953 c -0.51044,1.29429 -0.83856,1.94143 -0.98437,1.94141 l 0.32812,0.6289 0,0.32813 c -1.00262,1.25783 -1.75913,2.98048 -2.26953,5.16797 -0.3646,1.51303 -0.68361,2.26954 -0.95703,2.26953 l 0.32812,0.65625 0,0.30078 c -10e-6,0.21876 -0.10939,0.32814 -0.32812,0.32812 -2e-5,0.21877 0.10936,0.32814 0.32812,0.32813 l -0.32812,1.61328 0,0.65625 c 0.41925,1.53126 0.62889,2.38803 0.62891,2.57031 l 0,1.3125 c 2.36977,1e-5 3.66403,0.64714 3.88281,1.94141 -0.8568,0 -1.28518,0.31901 -1.28516,0.95703 l -0.32812,0 c -0.21877,0 -0.32815,-0.10937 -0.32813,-0.32813 l -0.6289,0.32813 c -1.80471,0 -3.31773,-1.29427 -4.53907,-3.88281 l -0.32812,0 0,-0.62891 c -2e-5,-1.09374 -0.20965,-2.38801 -0.62891,-3.88281 -0.9297,0.98438 -2.55209,2.16928 -4.86719,3.55469 l 0,0.32812 -1.9414,0 0,0.62891 -0.62891,-0.32813 -0.65625,0 -0.95703,0.65625 -0.32812,0 0,-1.28515 -0.65625,0 -0.62891,0.32812 c -1e-5,-0.27343 -0.64714,-0.8203 -1.94141,-1.64062 -0.4375,-0.85677 -0.65625,-1.60416 -0.65625,-2.24219 0,-3.77342 0.42839,-6.36196 1.28516,-7.76563 l -0.32813,-0.65625 c 0.72917,2e-5 1.27604,-0.64711 1.64063,-1.9414 1.20312,-1.20311 2.59765,-1.9505 4.18359,-2.24219 0.34635,-1.0755 2.069,-1.61326 5.16797,-1.61328 -10e-6,-0.21873 1.51301,-0.3281 4.53906,-0.32813 l 1.28516,0 0.32813,-1.3125 m -4.21094,3.88282 0,0.98437 -0.30078,0 c -0.21877,2e-5 -0.32814,-0.10935 -0.32813,-0.32812 -2.91668,2e-5 -5.39584,1.07554 -7.4375,3.22656 l -0.65625,0 0,0.32812 0.32813,0.65625 c -0.85678,2e-5 -1.61329,0.96617 -2.26953,2.89844 -10e-6,0.21877 0.10937,0.32814 0.32812,0.32813 l -0.32812,2.26953 0,1.9414 1.9414,0 c 0.21874,1e-5 0.32812,0.10027 0.32813,0.30078 l 0.65625,-0.30078 0.6289,0.30078 c -1e-5,-0.30988 0.97525,-0.95702 2.92578,-1.9414 3.66405,-2.93488 5.49608,-6.16144 5.4961,-9.67969 -0.21877,-0.41925 -0.32814,-0.74737 -0.32813,-0.98437 l -0.98437,0"
       style=""
       id="path3473" />
    <path
       d="m 851.58521,223.32552 c 0.85675,0.21878 2.04165,0.32815 3.55468,0.32812 l 0,-0.32812 1.28516,0 c 0.43748,0.0729 0.65623,0.29169 0.65625,0.65625 -0.21877,0.4193 -0.32814,0.73831 -0.32813,0.95703 0.43749,0.0729 0.65624,0.29169 0.65625,0.65625 l 0,2.26953 -0.98437,0 c -0.47398,2e-5 -0.90236,0.1094 -1.28516,0.32812 -1.75001,-1.29424 -2.82553,-1.94138 -3.22656,-1.9414 l -0.65625,0.32812 -0.65625,-0.32812 c -1.23959,2e-5 -2.20574,1.07554 -2.89844,3.22656 l 0.32813,0.65625 0,0.62891 c -10e-6,0.49221 -0.10939,0.92971 -0.32813,1.3125 0.21874,0.40106 0.32812,0.72007 0.32813,0.95703 l -0.32813,0 c 1.80468,6.03387 3.41796,9.05079 4.83985,9.05078 -2e-5,0.43751 0.53774,0.65626 1.61328,0.65625 l 0.32812,0 c 1.31249,1e-5 2.49738,-0.7565 3.55469,-2.26953 l 0,-2.89844 c 0.0729,-0.43748 0.29165,-0.65623 0.65625,-0.65625 -0.43752,-1.09373 -0.65627,-1.85024 -0.65625,-2.26953 l 0.65625,-0.32813 c -0.21877,-1.49477 -0.43752,-2.24216 -0.65625,-2.24218 l 0.32813,-1.64063 0,-2.57031 c -2e-5,-0.21873 0.10935,-0.3281 0.32812,-0.32813 l -0.32812,-0.65625 c 0.0364,-0.4557 0.68357,-1.10283 1.9414,-1.9414 1.73175,1.02086 2.59763,1.66799 2.59766,1.9414 l -0.65625,1.64063 c 0.43747,0.0547 0.65622,0.26435 0.65625,0.6289 l -0.32813,1.61329 c 0.21873,0.41929 0.3281,0.74741 0.32813,0.98437 -0.21878,0.41929 -0.32815,0.7383 -0.32813,0.95703 l 0.32813,0.65625 -0.32813,0.62891 0.32813,1.64062 c -3e-5,0.21877 -0.1094,0.53778 -0.32813,0.95703 0.27342,2.40627 0.48305,3.91929 0.62891,4.53907 -0.20055,0.36459 -0.30081,0.79298 -0.30078,1.28515 0.20049,0.41929 0.30075,0.7383 0.30078,0.95703 -0.4193,0.0729 -0.62893,0.29168 -0.62891,0.65625 -2e-5,0.63803 0.10935,0.95704 0.32813,0.95704 l -0.65625,3.88281 0.32812,1.9414 c -0.51044,3.66407 -0.83856,5.4961 -0.98437,5.4961 l 0.32812,0.65625 c -0.30992,2.15103 -0.62893,3.22655 -0.95703,3.22656 l 0.30078,0.65625 c -0.12762,1.07551 -0.66538,1.61327 -1.61328,1.61328 l 0.32813,1.61328 c -4.4844,5.59634 -7.72007,8.39452 -9.70703,8.39453 -0.0365,0.43749 -1.22137,0.87499 -3.55469,1.3125 -10e-6,-0.65626 -0.20965,-0.98439 -0.62891,-0.98437 l -0.65625,0.32812 c -10e-6,-0.38283 -0.85678,-1.02996 -2.57031,-1.9414 -1.29427,-2.33335 -1.94141,-4.38413 -1.94141,-6.15235 0.20052,-10e-6 0.30078,-0.10027 0.30078,-0.30078 -0.34635,-10e-6 -0.66536,-0.21876 -0.95703,-0.65625 0.36458,-3.95573 0.68359,-6.00651 0.95703,-6.15234 l -0.30078,-0.62891 c 0.7474,-1.29427 1.28516,-1.9414 1.61328,-1.9414 l 0.62891,0 0,0.6289 0.65625,-0.30078 c 0.41927,0 0.84765,0.64714 1.28516,1.94141 -0.41928,0.78385 -0.95704,2.61588 -1.61328,5.49609 -10e-6,2.04166 0.7565,4.1927 2.26953,6.45313 1.16665,-2e-5 1.92316,0.31899 2.26953,0.95703 2.62499,-0.8021 5.53253,-3.38153 8.72265,-7.73828 -10e-6,-0.6198 0.64712,-2.56121 1.94141,-5.82422 l 0,-0.32813 c -2e-5,-0.21875 -0.10939,-0.32812 -0.32812,-0.32812 0.43747,-2.31511 0.65622,-4.79427 0.65625,-7.4375 l 0,-1.61328 c 0.41925,0 0.62888,-0.10937 0.6289,-0.32813 l -0.30078,-0.6289 0.30078,-0.65625 c -0.20054,-0.41927 -0.3008,-0.73828 -0.30078,-0.95704 -0.21877,1e-5 -0.76564,0.53777 -1.64062,1.61329 l -1.61329,-0.32813 -2.89843,0 -0.98438,-0.65625 -0.6289,0.32813 c -1.73179,-0.63802 -2.59767,-1.49479 -2.59766,-2.57032 -0.94793,1e-5 -1.70444,-0.97525 -2.26953,-2.92578 -0.41928,2e-5 -0.62892,-0.21873 -0.62891,-0.65625 l 0,-1.91406 c -0.92969,2e-5 -1.57683,-1.62238 -1.9414,-4.86719 l 0.32812,-0.6289 c -0.14584,-1.73175 -0.36459,-2.59764 -0.65625,-2.59766 1.07551,-3.66403 2.47916,-5.49606 4.21094,-5.49609 -10e-6,-0.30987 1.18488,-0.52862 3.55469,-0.65625"
       style=""
       id="path3475" />
    <path
       d="m 884.2063,224.9388 c 0.41925,0.0729 0.62889,0.29169 0.62891,0.65625 l 0.65625,-0.32813 c 0.51039,3e-5 1.2669,0.64717 2.26953,1.94141 l 0.30078,0 c 0.21872,2.69794 0.3281,4.21096 0.32812,4.53906 -0.63804,2.57033 -1.71356,4.612 -3.22656,6.125 -1.85939,1.60418 -3.91017,2.78908 -6.15234,3.55469 l 0,-0.30078 -0.62891,0.30078 -0.98437,0 c -2.15106,1e-5 -3.22658,-0.20962 -3.22657,-0.62891 l -0.65625,0.32813 -0.30078,0 -0.98437,-0.65625 -0.95703,0 -0.32813,1.9414 c 0.85676,1e-5 1.28515,0.21876 1.28516,0.65625 1.31249,1.22137 4.32941,2.29689 9.05078,3.22657 3.15362,0.41927 4.87628,0.62891 5.16797,0.6289 l 1.9414,0 c 0.49217,0.4922 1.67706,0.82032 3.55469,0.98438 l 0,2.57031 c -0.4193,0 -0.62893,0.21875 -0.62891,0.65625 l -0.32812,0 c -0.21878,0 -0.32815,-0.10937 -0.32813,-0.32813 l -0.65625,0.32813 -0.30078,0 c -0.21877,0 -0.32815,-0.10937 -0.32812,-0.32813 -0.21878,1e-5 -0.32815,0.10938 -0.32813,0.32813 -5.48699,0 -9.79819,-0.64713 -12.93359,-1.94141 l -0.65625,0.32813 -5.49609,-2.89844 c -1.29428,-1.09374 -1.94141,-2.069 -1.94141,-2.92578 0,-0.30989 -0.31901,-0.6289 -0.95703,-0.95703 0.91145,-5.48696 2.42447,-9.47915 4.53906,-11.97656 0.41926,2e-5 0.6289,-0.20962 0.62891,-0.62891 -0.21876,2e-5 -0.32814,-0.10935 -0.32813,-0.32813 0.71093,3e-5 1.57682,-0.64711 2.59766,-1.9414 0.92968,-0.21873 2.00519,-0.64711 3.22656,-1.28516 -10e-6,0.20055 0.10936,0.30081 0.32813,0.30078 l 0,-0.30078 c -0.21877,3e-5 -0.32814,-0.10935 -0.32813,-0.32812 -10e-6,-0.43747 2.16014,-0.87497 6.48047,-1.3125 m -3.25391,3.58203 c -1e-5,0.41929 -1.39454,0.95705 -4.18359,1.61328 l -3.88281,4.18359 c -10e-6,0.52867 -0.32814,1.06643 -0.98438,1.61328 l 0,0.65625 c 1.89583,0.21877 3.29947,0.5469 4.21094,0.98438 4.10155,-0.34634 6.15233,-1.10285 6.15234,-2.26953 1.71353,-1.31248 2.5703,-3.25389 2.57032,-5.82422 l -0.32813,0 c -0.20054,2e-5 -0.3008,-0.31899 -0.30078,-0.95703 l -2.92578,0.30078 c -2e-5,-0.2005 -0.10939,-0.30076 -0.32813,-0.30078"
       style=""
       id="path3477" />
  </g>
  <g
     style="font-size:56px;font-style:normal;font-variant:normal;font-weight:bold;font-stretch:normal;text-align:center;line-height:125%;letter-spacing:0px;word-spacing:0px;writing-mode:lr-tb;text-anchor:middle;fill:#000000;fill-opacity:1;stroke:none;font-family:ChrisMcCormickTwentyEleven;-inkscape-font-specification:ChrisMcCormickTwentyEleven Bold"
     id="text3064">
    <path
       d="m 425.60007,188.86346 0.32812,0.65625 0.62891,-0.32812 c 1.29426,0.51046 1.9414,0.94796 1.9414,1.3125 l 0,0.62891 c 0,0.49222 -0.10938,0.92972 -0.32812,1.3125 l 0.32812,0.6289 -0.95703,3.22656 0.32813,0.65625 -1.61328,11.32032 c 0.20051,0.41929 0.30077,0.7383 0.30078,0.95703 l -0.30078,0 0.30078,0.65625 c -10e-6,0.49221 -0.10027,0.92059 -0.30078,1.28515 0.20051,0.36461 0.30077,0.90237 0.30078,1.61329 1.07551,-1.49477 1.9414,-2.24217 2.59765,-2.24219 1.02083,-1.09373 2.3151,-1.6406 3.88282,-1.64063 l 1.61328,0 c 0.21873,3e-5 0.32811,0.1094 0.32812,0.32813 l 0.62891,-0.32813 0.32812,0 c 0.21874,3e-5 0.32811,0.1094 0.32813,0.32813 0.41925,-0.21873 0.73826,-0.3281 0.95703,-0.32813 l 4.53906,2.26953 c -2e-5,1.02086 0.64712,1.88674 1.94141,2.59766 l 0,0.95703 -0.32813,0.65625 c 0.41925,0.21877 0.74738,0.32814 0.98438,0.32813 l 0,2.57031 c 0.78383,1e-5 1.32159,1.72267 1.61328,5.16797 -0.43752,0.0729 -0.65627,0.29167 -0.65625,0.65625 l 0,1.28515 c 0.0729,0.43751 0.29164,0.65626 0.65625,0.65625 0.69268,-1.29426 1.65883,-1.94139 2.89844,-1.9414 -3e-5,-0.63801 0.32809,-0.95702 0.98437,-0.95703 l 0.30078,1.61328 0,0.95703 c -0.71096,1e-5 -1.78648,0.97527 -3.22656,2.92578 l 0.32813,0.62891 0,0.32812 c -0.49222,0 -0.9206,0.42839 -1.28516,1.28516 l 0,1.61328 c -1.02086,0.65625 -1.77737,0.98437 -2.26953,0.98437 l -0.98438,0 c -2e-5,-0.4375 -0.31903,-0.65625 -0.95703,-0.65625 l 0.32813,-4.51171 c -2e-5,-0.47396 -0.1094,-1.65885 -0.32813,-3.55469 l 0.32813,-2.26953 c -0.83856,-6.69009 -2.67059,-10.03514 -5.4961,-10.03516 l -1.61328,0 c -0.4922,2e-5 -0.9297,0.1094 -1.3125,0.32813 -0.36459,-0.21873 -0.79298,-0.32811 -1.28515,-0.32813 -2e-5,0.27346 -0.96616,1.02997 -2.89844,2.26953 -0.65626,0.87502 -1.41277,2.27866 -2.26953,4.21094 0.43749,0.71095 0.65624,1.35808 0.65625,1.94141 l 0,6.125 c -10e-6,0.49219 -0.10938,0.92969 -0.32813,1.3125 0.21875,0.36458 0.32812,0.79297 0.32813,1.28515 -0.21876,0.65625 -0.43751,0.98438 -0.65625,0.98438 l 0.32812,0.6289 0,0.32813 c -0.94792,1.73177 -2.35156,2.59765 -4.21093,2.59765 l -1.61329,-1.9414 0,-0.98438 c 0.51042,0 0.9388,-0.75651 1.28516,-2.26953 0,-0.20052 -0.10938,-0.30078 -0.32812,-0.30078 -10e-6,-0.29166 0.21874,-1.47656 0.65625,-3.55469 l -0.32813,-0.65625 c 0.21875,-0.41926 0.32812,-0.74738 0.32813,-0.98437 -10e-6,-0.21874 -0.10938,-0.53775 -0.32813,-0.95703 0,-0.23697 0.10937,-0.55598 0.32813,-0.95703 -0.21876,-1.16666 -0.32813,-2.14192 -0.32813,-2.92579 l 0,-0.65625 c 0,-0.2005 0.10937,-0.30076 0.32813,-0.30078 -0.16407,-0.87498 -0.38282,-1.31248 -0.65625,-1.3125 0.43749,-1.71352 0.65624,-3.75519 0.65625,-6.125 l 0,-1.61328 c -10e-6,-0.49216 0.10937,-0.92966 0.32812,-1.3125 -0.21875,-1.13018 -0.4375,-2.63408 -0.65625,-4.51172 l 0.65625,-2.26953 c -0.21875,-0.38278 -0.32813,-0.81116 -0.32812,-1.28515 l 0,-0.32813 c -10e-6,-0.49215 0.10937,-0.92054 0.32812,-1.28516 -0.21875,-0.41923 -0.32813,-0.74736 -0.32812,-0.98437 l 0.32812,-2.89844 c -1.07552,4e-5 -1.61328,-0.32808 -1.61328,-0.98437 l 0,-2.57032 c 0.21875,5e-5 0.32812,0.10942 0.32812,0.32813 l 0.62891,-0.32813 0.98438,0.62891 c -10e-6,-1.07548 0.20963,-1.61324 0.6289,-1.61328 0.41927,-0.21871 0.74739,-0.32808 0.98438,-0.32813"
       style=""
       id="path3444" />
    <path
       d="m 472.08444,205.35175 c 1.58592,2e-5 2.4518,0.32815 2.59766,0.98437 l 0,2.26953 c -0.51044,1.2943 -0.83856,1.94143 -0.98438,1.94141 l 0.32813,0.6289 0,0.32813 c -1.00263,1.25783 -1.75914,2.98049 -2.26953,5.16797 -0.36461,1.51303 -0.68362,2.26954 -0.95703,2.26953 l 0.32812,0.65625 0,0.30078 c -2e-5,0.21876 -0.10939,0.32814 -0.32812,0.32813 -2e-5,0.21876 0.10935,0.32813 0.32812,0.32812 l -0.32812,1.61328 0,0.65625 c 0.41925,1.53126 0.62888,2.38803 0.6289,2.57031 l 0,1.3125 c 2.36977,1e-5 3.66404,0.64714 3.88281,1.94141 -0.85679,0 -1.28517,0.31901 -1.28515,0.95703 l -0.32813,0 c -0.21877,0 -0.32814,-0.10937 -0.32812,-0.32812 l -0.62891,0.32812 c -1.8047,0 -3.31772,-1.29426 -4.53906,-3.88281 l -0.32813,0 0,-0.62891 c -10e-6,-1.09374 -0.20965,-2.38801 -0.6289,-3.88281 -0.9297,0.98439 -2.5521,2.16928 -4.86719,3.55469 l 0,0.32812 -1.94141,0 0,0.62891 -0.6289,-0.32813 -0.65625,0 -0.95703,0.65625 -0.32813,0 0,-1.28515 -0.65625,0 -0.6289,0.32812 c -10e-6,-0.27343 -0.64714,-0.8203 -1.94141,-1.64062 -0.4375,-0.85676 -0.65625,-1.60416 -0.65625,-2.24219 0,-3.77342 0.42838,-6.36196 1.28516,-7.76562 l -0.32813,-0.65625 c 0.72916,2e-5 1.27604,-0.64712 1.64063,-1.94141 1.20312,-1.2031 2.59765,-1.9505 4.18359,-2.24219 0.34635,-1.07549 2.069,-1.61325 5.16797,-1.61328 -2e-5,-0.21872 1.513,-0.3281 4.53906,-0.32812 l 1.28516,0 0.32812,-1.3125 m -4.21094,3.88281 0,0.98437 -0.30078,0 c -0.21876,3e-5 -0.32814,-0.10935 -0.32812,-0.32812 -2.91668,2e-5 -5.39584,1.07554 -7.4375,3.22656 l -0.65625,0 0,0.32813 0.32812,0.65625 c -0.85677,1e-5 -1.61328,0.96616 -2.26953,2.89843 0,0.21877 0.10937,0.32814 0.32813,0.32813 l -0.32813,2.26953 0,1.94141 1.94141,0 c 0.21874,1e-5 0.32812,0.10027 0.32812,0.30078 l 0.65625,-0.30078 0.62891,0.30078 c -1e-5,-0.30989 0.97525,-0.95702 2.92578,-1.94141 3.66405,-2.93488 5.49608,-6.16144 5.49609,-9.67969 -0.21876,-0.41925 -0.32814,-0.74737 -0.32812,-0.98437 l -0.98438,0"
       style=""
       id="path3446" />
    <path
       d="m 495.29929,206.008 0.65625,-0.32813 c 2.13279,3e-5 3.74607,1.18492 4.83984,3.55469 l 0,0.65625 -2.26953,0 c -0.71096,2e-5 -1.45835,-0.3281 -2.24219,-0.98438 -0.4922,3e-5 -0.9297,0.1094 -1.3125,0.32813 l -0.62891,-0.32813 c -2.02345,3e-5 -4.1836,0.64716 -6.48046,1.94141 -0.41928,0.0729 -0.62892,0.29169 -0.62891,0.65625 l 0,0.32812 c 0.74738,1.23961 2.57941,2.74351 5.49609,4.51172 3.4453,3.39064 5.16795,6.19793 5.16797,8.42188 -0.3646,1e-5 -1.01174,0.7474 -1.9414,2.24219 -1.89585,0.21875 -3.08075,0.54688 -3.55469,0.98437 l -4.53906,0 -1.61329,0.32813 c 0,-0.4375 -0.10938,-0.65625 -0.32812,-0.65625 l -0.62891,0.32812 c -2.86198,-0.74739 -4.91276,-1.71353 -6.15234,-2.89844 l 0,-0.65625 c 0.63802,-0.71093 0.95703,-1.24869 0.95703,-1.61328 l 0.32813,0 0.65625,0.32813 0,-0.65625 0.32812,0 c 0.71093,10e-6 1.67708,0.53777 2.89844,1.61328 0.21874,1e-5 0.32812,-0.10937 0.32812,-0.32813 1.84114,0.43751 3.45442,0.65626 4.83985,0.65625 3.02602,-0.14582 4.53904,-0.57421 4.53906,-1.28515 -2.40626,-3.15364 -4.77605,-5.42317 -7.10938,-6.8086 -0.72917,-0.85675 -1.48568,-1.28514 -2.26953,-1.28515 l -2.59765,-3.22657 c 0.27343,-2.80726 1.67707,-4.21091 4.21093,-4.21093 0.4375,-1.16664 3.45442,-1.92315 9.05079,-2.26953 l 0,0.65625"
       style=""
       id="path3448" />
    <path
       d="m 508.50632,188.86346 0.32812,0.65625 0.62891,-0.32812 c 1.29426,0.51046 1.9414,0.94796 1.9414,1.3125 l 0,0.62891 c 0,0.49222 -0.10938,0.92972 -0.32812,1.3125 l 0.32812,0.6289 -0.95703,3.22656 0.32813,0.65625 -1.61328,11.32032 c 0.20051,0.41929 0.30077,0.7383 0.30078,0.95703 l -0.30078,0 0.30078,0.65625 c -10e-6,0.49221 -0.10027,0.92059 -0.30078,1.28515 0.20051,0.36461 0.30077,0.90237 0.30078,1.61329 1.07551,-1.49477 1.9414,-2.24217 2.59765,-2.24219 1.02083,-1.09373 2.3151,-1.6406 3.88282,-1.64063 l 1.61328,0 c 0.21873,3e-5 0.32811,0.1094 0.32812,0.32813 l 0.62891,-0.32813 0.32812,0 c 0.21874,3e-5 0.32811,0.1094 0.32813,0.32813 0.41925,-0.21873 0.73826,-0.3281 0.95703,-0.32813 l 4.53906,2.26953 c -2e-5,1.02086 0.64712,1.88674 1.94141,2.59766 l 0,0.95703 -0.32813,0.65625 c 0.41925,0.21877 0.74738,0.32814 0.98438,0.32813 l 0,2.57031 c 0.78383,1e-5 1.32159,1.72267 1.61328,5.16797 -0.43752,0.0729 -0.65627,0.29167 -0.65625,0.65625 l 0,1.28515 c 0.0729,0.43751 0.29164,0.65626 0.65625,0.65625 0.69268,-1.29426 1.65883,-1.94139 2.89844,-1.9414 -3e-5,-0.63801 0.32809,-0.95702 0.98437,-0.95703 l 0.30078,1.61328 0,0.95703 c -0.71096,1e-5 -1.78648,0.97527 -3.22656,2.92578 l 0.32813,0.62891 0,0.32812 c -0.49222,0 -0.9206,0.42839 -1.28516,1.28516 l 0,1.61328 c -1.02086,0.65625 -1.77737,0.98437 -2.26953,0.98437 l -0.98438,0 c -2e-5,-0.4375 -0.31903,-0.65625 -0.95703,-0.65625 l 0.32813,-4.51171 c -2e-5,-0.47396 -0.1094,-1.65885 -0.32813,-3.55469 l 0.32813,-2.26953 c -0.83856,-6.69009 -2.67059,-10.03514 -5.4961,-10.03516 l -1.61328,0 c -0.4922,2e-5 -0.9297,0.1094 -1.3125,0.32813 -0.36459,-0.21873 -0.79298,-0.32811 -1.28515,-0.32813 -2e-5,0.27346 -0.96616,1.02997 -2.89844,2.26953 -0.65626,0.87502 -1.41277,2.27866 -2.26953,4.21094 0.43749,0.71095 0.65624,1.35808 0.65625,1.94141 l 0,6.125 c -10e-6,0.49219 -0.10938,0.92969 -0.32813,1.3125 0.21875,0.36458 0.32812,0.79297 0.32813,1.28515 -0.21876,0.65625 -0.43751,0.98438 -0.65625,0.98438 l 0.32812,0.6289 0,0.32813 c -0.94792,1.73177 -2.35156,2.59765 -4.21093,2.59765 l -1.61329,-1.9414 0,-0.98438 c 0.51042,0 0.9388,-0.75651 1.28516,-2.26953 0,-0.20052 -0.10938,-0.30078 -0.32812,-0.30078 -10e-6,-0.29166 0.21874,-1.47656 0.65625,-3.55469 l -0.32813,-0.65625 c 0.21875,-0.41926 0.32812,-0.74738 0.32813,-0.98437 -10e-6,-0.21874 -0.10938,-0.53775 -0.32813,-0.95703 0,-0.23697 0.10937,-0.55598 0.32813,-0.95703 -0.21876,-1.16666 -0.32813,-2.14192 -0.32813,-2.92579 l 0,-0.65625 c 0,-0.2005 0.10937,-0.30076 0.32813,-0.30078 -0.16407,-0.87498 -0.38282,-1.31248 -0.65625,-1.3125 0.43749,-1.71352 0.65624,-3.75519 0.65625,-6.125 l 0,-1.61328 c -10e-6,-0.49216 0.10937,-0.92966 0.32812,-1.3125 -0.21875,-1.13018 -0.4375,-2.63408 -0.65625,-4.51172 l 0.65625,-2.26953 c -0.21875,-0.38278 -0.32813,-0.81116 -0.32812,-1.28515 l 0,-0.32813 c -10e-6,-0.49215 0.10937,-0.92054 0.32812,-1.28516 -0.21875,-0.41923 -0.32813,-0.74736 -0.32812,-0.98437 l 0.32812,-2.89844 c -1.07552,4e-5 -1.61328,-0.32808 -1.61328,-0.98437 l 0,-2.57032 c 0.21875,5e-5 0.32812,0.10942 0.32812,0.32813 l 0.62891,-0.32813 0.98438,0.62891 c -10e-6,-1.07548 0.20963,-1.61324 0.6289,-1.61328 0.41927,-0.21871 0.74739,-0.32808 0.98438,-0.32813"
       style=""
       id="path3450" />
    <path
       d="m 390.18991,257.57831 0.65625,0 c 0.47394,4e-5 0.90233,0.10942 1.28516,0.32812 l 0.65625,-0.32812 c 6.67185,2.42452 10.00778,5.33207 10.00781,8.72265 l 0,0.65625 c -0.43753,0.69275 -0.65628,1.23051 -0.65625,1.61329 l -2.24219,-0.32813 0,-1.61328 c -2e-5,-0.0547 -2e-5,-0.10023 0,-0.13672 0.0182,-0.0364 0.0182,-0.082 0,-0.13672 -0.69273,-2.09631 -1.33075,-3.47261 -1.91406,-4.1289 l -0.98438,0 -0.98437,-0.10938 0,0.32813 c -1.73179,-0.5833 -2.59767,-1.13017 -2.59766,-1.64063 l -0.6289,0.32813 -0.98438,0 -0.6289,-0.32813 c -1.03908,1.49483 -1.79559,3.76436 -2.26954,6.80859 l -0.65625,0 c -10e-6,0.20056 0.10937,0.30082 0.32813,0.30079 -0.72918,4.32034 -1.26694,6.48049 -1.61328,6.48046 0.41926,1.09378 0.62889,1.85029 0.6289,2.26954 -0.20053,2e-5 -0.30079,0.1094 -0.30078,0.32812 0.20051,3e-5 0.30077,0.10029 0.30078,0.30078 2.95312,-0.85674 5.00389,-1.28513 6.15235,-1.28515 l 0.32812,0.65625 0.65625,-0.32813 c 0.85675,3e-5 2.36066,0.64716 4.51172,1.94141 l 0,0.95703 c -0.43752,2e-5 -0.65627,0.21877 -0.65625,0.65625 l -0.6289,0 0,-0.65625 c -0.36461,0.43752 -1.987,0.76565 -4.86719,0.98437 -3.44533,0.8568 -5.16798,1.50393 -5.16797,1.94141 l 0,0.30078 0.32812,1.94141 -0.32812,0.65625 c 0.27342,1.91407 0.49217,3.09897 0.65625,3.55468 -0.21876,0.38283 -0.32814,0.81122 -0.32813,1.28516 l 0,0.32813 c -10e-6,0.49219 0.10937,0.92969 0.32813,1.3125 l -0.32813,0.6289 c -10e-6,0.21876 0.10937,0.32814 0.32813,0.32813 l -0.32813,1.61328 0,1.9414 0.65625,0.95704 c -0.21876,0.41927 -0.32813,0.7474 -0.32812,0.98437 0.43749,0.0729 0.65624,0.29167 0.65625,0.65625 l 0,0.62891 -0.65625,0 0.32812,0.65625 c -10e-6,0.38281 -0.64714,0.92057 -1.9414,1.61328 l 0,0.65625 c -0.21876,0 -0.32814,-0.10938 -0.32813,-0.32813 l -0.65625,0.32813 -0.30078,0 c -10e-6,-0.4375 -0.54688,-0.97526 -1.64062,-1.61328 0.21874,-2.16927 0.43749,-3.2539 0.65625,-3.25391 l -0.32813,-0.62891 0.32813,-0.65625 c -1e-5,-0.21874 -0.10939,-0.32811 -0.32813,-0.32812 l 0.32813,-1.61328 c -1e-5,-0.63801 -0.10939,-0.95702 -0.32813,-0.95703 l 0.32813,-1.61328 0,-1.64063 -0.32813,-1.61328 c 0.21874,10e-6 0.32812,-0.10936 0.32813,-0.32813 l -0.95703,0 0,-1.91406 c -10e-6,-0.21873 0.10025,-0.32811 0.30078,-0.32812 l -0.30078,-0.65625 0,-2.89844 -0.32813,0 -1.94141,0.30078 c -1.0026,2e-5 -2.29687,-0.96612 -3.88281,-2.89844 l 0,-0.65625 1.28516,0 0,0.65625 1.61328,0 1.94141,-1.28515 0.98437,0 c 0.21874,-1.9505 0.42838,-2.92576 0.62891,-2.92578 -1e-5,-0.2005 -0.10027,-0.30076 -0.30078,-0.30079 1.78644,-11.21089 3.18097,-16.81636 4.18359,-16.8164 l 2.26953,-0.65625"
       style=""
       id="path3452" />
    <path
       d="m 423.16647,273.41034 c 0.5104,3e-5 1.47655,0.43753 2.89844,1.3125 l 0,0.32812 c -2e-5,0.20055 -0.10028,0.30081 -0.30078,0.30079 l 0.30078,0.65625 0,2.26953 c -2e-5,0.47398 0.10935,0.90236 0.32813,1.28515 -3e-5,0.21878 -0.1094,0.32815 -0.32813,0.32813 0.43748,5.15887 0.97524,9.57944 1.61328,13.26172 -2e-5,1.14844 0.64711,2.22396 1.94141,3.22656 -3e-5,0.76563 -0.8568,1.30339 -2.57031,1.61328 -3e-5,-0.54687 -0.75654,-1.41275 -2.26954,-2.59766 -0.43751,-0.5104 -0.97527,-2.34243 -1.61328,-5.49609 l 0.32813,0 c -0.21877,-0.36457 -0.32814,-0.79295 -0.32813,-1.28516 -0.47397,2e-5 -1.01173,1.29429 -1.61328,3.88282 -0.51043,10e-6 -0.93882,0.64714 -1.28515,1.9414 -1.76825,1.87761 -3.60028,2.95313 -5.4961,3.22657 l -0.65625,-0.32813 -0.65625,0.32813 c -4.52084,0 -6.78125,-2.79817 -6.78125,-8.39454 0,-0.21873 0.10938,-0.32811 0.32813,-0.32812 l -0.32813,-1.61328 c 0.10938,-3.02603 0.32813,-4.53904 0.65625,-4.53906 0,-0.21873 -0.10938,-0.32811 -0.32812,-0.32813 l 0.32812,-2.24219 0,-0.32812 -0.32812,-1.61328 c 0.38281,2e-5 0.81119,-1.18487 1.28515,-3.55469 l 0.98438,-0.65625 1.28515,0 c 0.27344,3e-5 0.8112,0.64716 1.61329,1.94141 l 0,0.32812 c -10e-6,1.07555 -0.21876,1.61331 -0.65625,1.61328 l 0.32812,0.65625 c -10e-6,1.07555 -0.31902,1.61331 -0.95703,1.61328 l 0.32812,0.62891 c 0,0.49221 -0.10938,0.92971 -0.32812,1.3125 0.21874,0.3646 0.32812,0.79299 0.32812,1.28516 0,0.63803 -0.21875,1.39454 -0.65625,2.26953 0,0.21876 0.10937,0.32814 0.32813,0.32812 l -0.32813,1.28516 c 0,4.73959 1.18489,7.10938 3.55469,7.10937 l 0.32813,0 c 0.67447,10e-6 1.42186,-0.64712 2.24218,-1.9414 1.02083,10e-6 2.10546,-1.83202 3.25391,-5.4961 0.41926,2e-5 0.62889,-0.21873 0.62891,-0.65625 -2e-5,-0.2005 -0.10028,-0.30076 -0.30078,-0.30078 0.27342,-1.80467 0.7018,-3.09894 1.28515,-3.88281 l -0.32812,-0.65625 c 0.54686,-0.82029 0.97524,-3.29946 1.28515,-7.4375 0.43749,3e-5 0.65624,-0.21872 0.65625,-0.65625"
       style=""
       id="path3454" />
    <path
       d="m 439.62741,271.16815 c -10e-6,0.4193 0.42838,0.95706 1.28516,1.61328 l 0,1.94141 0.95703,0 c -10e-6,-1.40362 1.94139,-2.58851 5.82422,-3.55469 0.9479,3e-5 1.70441,0.53779 2.26953,1.61328 l 0.65625,-0.32812 c 1.76821,3e-5 3.05336,4.4206 3.85547,13.26172 0.16404,1.07553 0.60154,1.61329 1.3125,1.61328 l 0.32812,1.61328 -0.32812,1.61328 0.6289,0 0,0.65625 -0.6289,0 0.32812,0.62891 c -0.38283,2.16928 -1.02997,3.25391 -1.9414,3.2539 -1.80471,10e-6 -2.77997,-1.08462 -2.92579,-3.2539 l 0.32813,-0.62891 -0.32813,-0.65625 0.32813,-0.65625 c -0.21877,-1.16665 -0.32814,-2.1328 -0.32813,-2.89844 0.21874,2e-5 0.32811,-0.10936 0.32813,-0.32812 -0.43752,1e-5 -0.75653,-0.85676 -0.95703,-2.57031 l 0.30078,-0.65625 c -0.41929,-0.69269 -0.7383,-1.87759 -0.95703,-3.55469 l 0.32812,0 c -0.56512,-3.66404 -1.431,-5.49607 -2.59765,-5.4961 -1.71356,0.49222 -2.57033,1.13935 -2.57032,1.94141 -1.96876,2.80732 -3.05339,4.21096 -3.2539,4.21094 l 0,-0.65625 -0.30078,0 0,0.32812 c 0.20051,0.36461 0.30077,0.79299 0.30078,1.28516 -1.9323,2.88023 -2.89845,6.43491 -2.89844,10.66406 l 0.32813,0.65625 c -0.0182,0.58334 -0.77475,1.23048 -2.26954,1.94141 l -0.95703,0 c -1.25781,-0.49218 -2.1237,-1.35807 -2.59765,-2.59766 l 1.61328,-3.55469 -0.32813,-0.65625 1.61328,-11.29296 c 0,-0.21873 -0.10026,-0.3281 -0.30078,-0.32813 0,-2.49737 0.85677,-4.22002 2.57032,-5.16797 l 0.98437,0"
       style=""
       id="path3456" />
    <path
       d="m 474.16257,275.35175 3.55468,0.98437 0.65625,-0.32812 c 1.0755,0.65627 1.83201,0.9844 2.26954,0.98437 0.71091,-0.43747 1.35805,-0.65622 1.9414,-0.65625 l 0.32813,0 c 0.85674,1.2943 1.28513,2.47919 1.28515,3.55469 -0.21877,0.85679 -0.86591,1.28518 -1.9414,1.28515 -2.18752,-0.41924 -3.48179,-0.62888 -3.88282,-0.6289 -2e-5,0.20054 -0.10939,0.3008 -0.32812,0.30078 l 0,-0.95703 -0.62891,0.32812 -0.32812,0 c -0.60158,-0.60154 -1.6771,-1.03904 -3.22656,-1.3125 -0.45575,0.18232 -1.64976,0.40107 -3.58204,0.65625 -10e-6,-0.43747 -0.20964,-0.65622 -0.6289,-0.65625 -1.95053,1.71357 -2.92579,2.68883 -2.92578,2.92578 -1e-5,0.47398 -0.4284,0.79299 -1.28516,0.95704 -0.85678,2.29689 -1.28516,3.80991 -1.28516,4.53906 l 0,1.28515 1.28516,3.55469 c 0.0182,0.29168 1.31249,1.04819 3.88281,2.26953 l 3.55469,0 c 1.34894,10e-6 5.33201,-1.07551 11.94922,-3.22656 l 0,0.95703 0.32812,0 0,-0.6289 0.65625,0 c 0.43748,0.0547 0.65623,0.26433 0.65625,0.6289 l 0,0.32813 -1.64062,1.9414 c -5.43231,2.3698 -8.5495,3.5547 -9.35156,3.55469 -1.13023,0.21875 -2.4245,0.32813 -3.88282,0.32813 -2.8073,0 -5.39584,-0.97526 -7.76562,-2.92579 -2.36979,-1.36717 -3.55469,-4.05597 -3.55469,-8.0664 0,-2.8255 1.1849,-5.73305 3.55469,-8.72266 0.61979,3e-5 1.26692,-0.53773 1.94141,-1.61328 2.24217,-0.87497 4.39321,-1.31247 6.45312,-1.3125 l 0.32813,0 c 0.21873,3e-5 0.32811,0.1094 0.32812,0.32813 l 1.28516,-0.65625"
       style=""
       id="path3458" />
    <path
       d="m 501.67038,259.84784 0,0.32812 0.62891,-0.32812 0.32812,0 c 0.29165,4e-5 0.82941,0.5378 1.61328,1.61328 l 0,0.65625 c -0.85678,3.48181 -1.50392,6.92712 -1.9414,10.33594 l 0.32812,0.65625 -0.32812,0.6289 c 0.18227,0.87503 0.40102,1.31253 0.65625,1.3125 l 0.65625,-0.32812 0.6289,0.32812 c 0.3828,-0.21872 0.8203,-0.32809 1.3125,-0.32812 l 0,0.32812 3.55469,-0.65625 c 0.36456,0.21878 0.79295,0.32816 1.28516,0.32813 0.23695,3e-5 0.55596,-0.10935 0.95703,-0.32813 1.73174,0.34639 2.59763,0.77477 2.59765,1.28516 l 0,0.32813 c -1.45835,0.85679 -2.64325,1.28518 -3.55468,1.28515 -3e-5,-0.20049 -0.1094,-0.30075 -0.32813,-0.30078 -2e-5,0.8568 -1.94142,1.28518 -5.82422,1.28516 l -1.9414,0 0,0.32812 c -2e-5,0.21878 0.10936,0.53779 0.32812,0.95703 l -0.32812,1.28516 c 0.21873,1.42189 0.32811,2.82554 0.32812,4.21094 -0.21876,10e-6 -0.32814,0.10939 -0.32812,0.32812 0.65623,2e-5 0.98436,0.75653 0.98437,2.26953 l 0,2.89844 c -10e-6,0.58335 0.21874,1.23048 0.65625,1.94141 l -0.32812,0.65625 c 0.21873,2.15105 0.53774,3.4362 0.95703,3.85547 l 0,1.64062 c -2e-5,0.56511 -0.75653,0.99349 -2.26953,1.28516 -1.93231,-0.27344 -2.89845,-0.70182 -2.89844,-1.28516 l 0,-4.21094 -0.32813,-1.9414 0.32813,-0.65625 c -0.25522,-1.91405 -0.47397,-3.09895 -0.65625,-3.55469 0.21874,-0.41926 0.32811,-0.73827 0.32812,-0.95703 l -0.32812,-0.65625 c 0.21874,-0.41926 0.32811,-0.73827 0.32812,-0.95703 l -0.32812,-1.61328 0.32812,0 -0.32812,-0.65625 0,-5.4961 -0.30078,0 -0.65625,0.32813 -0.32813,-0.65625 -0.65625,0.32812 c -0.40105,-0.21872 -0.72006,-0.3281 -0.95703,-0.32812 l -0.65625,0.32812 c -0.41928,-0.21872 -0.73829,-0.3281 -0.95703,-0.32812 -1e-5,0.43752 -0.21876,0.65627 -0.65625,0.65625 -2.15104,-0.5104 -3.22656,-1.48565 -3.22656,-2.92578 0.40104,-1.03904 1.15755,-1.78643 2.26953,-2.24219 -10e-6,-0.21872 0.10937,-0.3281 0.32812,-0.32813 0.69271,0.4193 1.33984,0.62894 1.94141,0.62891 l 0.62891,0 c 0.49218,3e-5 0.92056,-0.10023 1.28515,-0.30078 0.87499,0.4193 1.6315,0.62893 2.26953,0.6289 l 0,-0.32812 c -1e-5,-0.20049 -0.10938,-0.30075 -0.32812,-0.30078 0.65624,-5.41403 0.98436,-8.54033 0.98437,-9.37891 -0.21876,-0.41923 -0.32813,-0.74735 -0.32812,-0.98437 0.43749,4e-5 0.86587,-0.85673 1.28515,-2.57032 0.41926,-0.2187 0.74739,-0.32808 0.98438,-0.32812"
       style=""
       id="path3460" />
    <path
       d="m 521.02975,259.84784 0.65625,0 c 0,0.43754 0.42838,0.9753 1.28516,1.61328 -1e-5,0.21879 -0.10938,0.32817 -0.32812,0.32813 0.21874,0.41931 0.32811,0.73832 0.32812,0.95703 l -0.32812,3.88281 0.32812,0.65625 c -0.21876,0.34639 -0.32813,0.88415 -0.32812,1.61328 l -0.62891,-0.32812 c -10e-6,0.43753 -0.21876,0.65628 -0.65625,0.65625 l -0.65625,0 c -1.07552,-0.40101 -1.82292,-1.58591 -2.24219,-3.55469 l 0.30078,0 -0.30078,-0.65625 0,-0.32813 c 0,-0.21871 0.10026,-0.32808 0.30078,-0.32812 l -0.30078,-0.62891 0,-1.9414 c 0,-1.29423 0.85677,-1.94137 2.57031,-1.94141 m -0.95703,15.20312 0.32813,0 c 0.58333,0.74743 1.54947,1.39456 2.89844,1.94141 l 0.32812,1.91406 c -0.21876,0.4193 -0.32813,0.74742 -0.32812,0.98438 -1e-5,0.21877 0.10936,0.32815 0.32812,0.32812 -0.21876,2.15106 -0.43751,3.22658 -0.65625,3.22657 -1e-5,0.21876 0.10937,0.32814 0.32813,0.32812 -0.43751,7.10939 -0.8659,10.66407 -1.28516,10.66406 l 0.32812,1.61328 0,1.61329 c -0.4375,0.49219 -0.65625,1.2487 -0.65625,2.26953 -0.21875,0 -0.32813,-0.10938 -0.32812,-0.32813 l -0.65625,0.32813 -0.95703,0 -0.65625,-0.32813 c 0,0.4375 -0.20964,0.65625 -0.62891,0.65625 l -0.32812,0 c 0,-0.96614 -0.10938,-1.61328 -0.32813,-1.9414 0.21875,-1.47656 0.32813,-2.66146 0.32813,-3.55469 l 0,-2.26953 c 0,-0.21874 0.10937,-0.32812 0.32812,-0.32813 0,-0.21874 -0.10938,-0.32811 -0.32812,-0.32812 0.21874,-2.78905 0.42838,-4.18358 0.6289,-4.1836 0,-0.21873 -0.10026,-0.32811 -0.30078,-0.32812 l 0.30078,-2.26953 0,-5.16797 c 0,-1.53123 -0.20963,-2.71612 -0.6289,-3.55469 0.5651,3e-5 1.21223,-0.42836 1.9414,-1.28516"
       style=""
       id="path3462" />
    <path
       d="m 538.7485,273.73846 c 1.71353,0.21878 2.5703,0.54691 2.57032,0.98438 l 0.65625,-0.32813 c 2.91664,3e-5 5.50518,2.36982 7.76562,7.10938 0.41925,1.987 0.62888,3.17189 0.62891,3.55469 -3e-5,2.88022 -1.18492,6.11589 -3.55469,9.70703 -0.34637,1e-5 -0.77476,0.42839 -1.28516,1.28515 l -3.55468,3.88282 c -2.80731,0.85677 -4.85809,1.28515 -6.15235,1.28515 -3.8099,-1.1302 -6.38932,-3.17187 -7.73828,-6.125 0,-0.21874 0.10026,-0.32811 0.30078,-0.32812 -0.41927,-0.78385 -0.6289,-1.64973 -0.6289,-2.59766 0,-0.47395 0.10937,-0.90233 0.32812,-1.28515 -0.21875,-0.3828 -0.32812,-0.81119 -0.32812,-1.28516 l 0,-0.65625 0.32812,-0.65625 c -0.4375,10e-6 -0.65625,-0.20962 -0.65625,-0.62891 1.36719,-6.47133 2.77083,-9.707 4.21094,-9.70703 -10e-6,-0.30987 0.96614,-1.06638 2.89844,-2.26953 -10e-6,-0.21872 0.32811,-0.3281 0.98437,-0.32812 l -0.32812,-0.62891 0.32812,-0.65625 1.61328,0.32812 c 0.41926,-0.21872 0.73827,-0.32809 0.95703,-0.32812 -1e-5,0.21878 0.10937,0.32815 0.32813,0.32812 l 0.32812,-0.65625 m -8.42187,14.54688 0.32812,0.65625 c 0,0.21876 -0.10938,0.32814 -0.32812,0.32812 0,5.37762 2.36978,8.06642 7.10937,8.06641 1.74999,-0.0911 3.58202,-1.05728 5.4961,-2.89844 -2e-5,-0.72915 0.75649,-1.6953 2.26953,-2.89843 1.29425,-3.09895 1.94138,-4.93098 1.94141,-5.4961 l 0,-0.65625 c -3e-5,-3.71873 -1.83205,-6.5169 -5.4961,-8.39453 -1.9323,0.8568 -3.33595,1.28518 -4.21094,1.28516 -3.44532,1.20314 -5.16797,2.59767 -5.16796,4.18359 -0.98438,2.24221 -1.63152,4.18361 -1.94141,5.82422"
       style=""
       id="path3464" />
    <path
       d="m 560.37741,271.16815 c -1e-5,0.4193 0.42838,0.95706 1.28516,1.61328 l 0,1.94141 0.95703,0 c -10e-6,-1.40362 1.94139,-2.58851 5.82422,-3.55469 0.9479,3e-5 1.70441,0.53779 2.26953,1.61328 l 0.65625,-0.32812 c 1.76821,3e-5 3.05336,4.4206 3.85547,13.26172 0.16404,1.07553 0.60154,1.61329 1.3125,1.61328 l 0.32812,1.61328 -0.32812,1.61328 0.6289,0 0,0.65625 -0.6289,0 0.32812,0.62891 c -0.38283,2.16928 -1.02997,3.25391 -1.9414,3.2539 -1.80471,10e-6 -2.77997,-1.08462 -2.92579,-3.2539 l 0.32813,-0.62891 -0.32813,-0.65625 0.32813,-0.65625 c -0.21877,-1.16665 -0.32814,-2.1328 -0.32813,-2.89844 0.21874,2e-5 0.32811,-0.10936 0.32813,-0.32812 -0.43752,1e-5 -0.75653,-0.85676 -0.95703,-2.57031 l 0.30078,-0.65625 c -0.41929,-0.69269 -0.7383,-1.87759 -0.95703,-3.55469 l 0.32812,0 c -0.56512,-3.66404 -1.431,-5.49607 -2.59765,-5.4961 -1.71356,0.49222 -2.57033,1.13935 -2.57032,1.94141 -1.96876,2.80732 -3.05339,4.21096 -3.2539,4.21094 l 0,-0.65625 -0.30078,0 0,0.32812 c 0.20051,0.36461 0.30077,0.79299 0.30078,1.28516 -1.9323,2.88023 -2.89845,6.43491 -2.89844,10.66406 l 0.32813,0.65625 c -0.0182,0.58334 -0.77475,1.23048 -2.26954,1.94141 l -0.95703,0 c -1.25781,-0.49218 -2.1237,-1.35807 -2.59765,-2.59766 l 1.61328,-3.55469 -0.32813,-0.65625 1.61328,-11.29296 c 0,-0.21873 -0.10026,-0.3281 -0.30078,-0.32813 0,-2.49737 0.85677,-4.22002 2.57032,-5.16797 l 0.98437,0"
       style=""
       id="path3466" />
  </g>
  <path
     style="fill:#000000"
     d="m 425.08989,142.98663 c -10.11836,-0.36837 -7.07285,-14.93002 -8.42641,-19.45784 -2.43275,-3.12004 2.56537,-12.14943 -3.96449,-10.36281 -13.15646,-0.45595 -79.01175,1.98239 -92.0414,3.58269 -11.47884,0.47575 -22.9655,5.68901 -34.40761,3.027 -3.71441,-7.5613 1.22769,-15.07001 -3.01511,-21.567835 3.77822,-3.520946 -5.61666,-8.361281 2.31789,-8.306265 22.31441,-0.449855 97.0009,-7.286911 119.39744,-6.293532 2.66789,-0.712109 8.45247,1.534419 9.12553,-1.071359 -0.38999,-10.059081 -2.72774,-19.97328 -4.89172,-29.699792 5.47767,-6.388103 18.91993,0.98484 22.97189,-2.676834 9.36065,-0.460884 18.46825,2.113432 27.85548,0.946847 17.88149,-0.09878 35.8119,-1.651055 53.66453,-0.842768 3.69814,7.029318 1.74525,17.069214 3.17658,25.281504 -3.45874,8.630401 11.06495,7.202589 17.62621,8.410417 11.37503,0.732605 85.06971,2.408189 96.43601,3.269011 0.41386,-6.234508 -0.71718,-13.330935 2.59825,-18.7577 7.81206,-1.655261 10.40042,8.266577 14.37586,10.343944 3.43869,5.87038 7.31487,9.465783 9.71679,16.162756 4.35614,2.03365 8.78021,5.196266 3.12063,8.497106 -6.41766,6.14393 -14.40106,10.51895 -19.85593,17.46689 -1.08354,3.7954 -8.59252,15.19259 -12.79914,6.11594 -1.15142,-6.46507 1.99062,-19.89495 -9.04216,-14.62724 -12.331,0.38042 -86.98611,-0.94743 -99.31922,-1.01763 -0.17468,10.50509 1.73257,21.38322 -1.3074,31.57115 -31.10058,-0.0271 -62.22603,0.81297 -93.3125,0.006 z m 53.2717,-4.32161 c 11.28578,-0.2338 22.6047,-0.12261 33.8609,-0.97096 1.51575,-10.61228 -0.44,-21.60014 -0.63119,-32.34471 -0.71491,-16.708779 -2.30972,-33.373888 -2.99481,-50.072307 -30.12168,-0.06399 -60.38071,0.854104 -90.39418,-0.424206 -6.99227,-0.567988 2.35171,7.864754 0.56185,11.937551 1.17035,14.265031 2.47605,28.56787 3.21934,42.848002 -1.6579,6.14487 3.05169,15.51773 1.89017,23.21024 0.84615,9.23736 14.66993,5.61806 21.40077,6.32259 11.02783,-0.23798 22.05761,-0.37587 33.08715,-0.5062 z m 5.6504,-18.09997 c -5.35356,-8.01237 -2.78291,-20.05799 -10.47681,-26.875858 -7.13814,0.851761 -7.83985,12.116958 -10.88069,18.012258 -4.53489,9.92682 -10.42665,-2.64327 -7.71861,-8.5496 -0.0908,-7.890053 2.22789,-15.286715 -1.28584,-22.139169 -3.67364,-10.228004 7.61814,-5.903363 6.90475,1.915299 2.01313,2.285009 0.23565,15.837941 2.5897,11.539532 3.30881,-6.521462 12.70736,-6.527771 17.4669,-1.1201 5.18496,6.297713 7.07028,15.831968 8.96178,23.306458 0.24038,3.60614 -1.69144,7.37284 -5.56118,3.91118 z M 301.7921,115.03699 c 16.74189,-2.70297 86.41328,-6.18162 103.41653,-6.10143 13.7113,3.74366 10.64348,-11.309636 9.06376,-19.606538 -19.86667,-2.264969 -92.72198,1.570509 -112.50745,3.629026 -6.02504,0.95007 -18.87937,-2.279142 -13.28426,7.454262 2.54536,7.7434 -2.62407,20.25786 13.31142,14.62468 z m 335.12331,0.43625 c 4.141,-6.53821 13.91442,-9.3923 16.9385,-14.49084 -0.12324,-6.657784 -9.14737,-14.950524 -13.02637,-21.974701 -4.98363,-8.529533 -0.74273,5.502565 -2.871,9.071727 -2.25662,12.273724 -15.28604,1.419017 -22.59197,2.592784 -11.85968,-1.327334 -86.42804,-1.603528 -97.96948,-4.884318 0.63741,6.812097 0.56836,13.751009 2.097,20.435858 16.27,1.63505 95.035,1.43051 111.31729,0.56027 5.95369,-2.78437 1.23926,14.60375 6.10603,8.68922 z"
     id="path3076"
     inkscape:connector-curvature="0"
     sodipodi:nodetypes="cccccccccccccccccccccccccccccccccccccccccccccccccccccccccccccc" />
</svg>
